<?xml version="1.0" encoding="utf-8"?>
<!-- Generator: Adobe Illustrator 21.0.2, SVG Export Plug-In . SVG Version: 6.00 Build 0)  -->
<svg version="1.1" id="Livello_1" xmlns="http://www.w3.org/2000/svg" xmlns:xlink="http://www.w3.org/1999/xlink" x="0px" y="0px"
	 viewBox="0 0 3668.4 2107" style="enable-background:new 0 0 3668.4 2107;" xml:space="preserve">
<style type="text/css">
	.st0{fill:none;stroke:#010101;stroke-width:3;}
	.st1{fill:none;stroke:#000000;stroke-width:3;}
	.st2{fill:#939598;stroke:#000000;stroke-width:3;}
	.st3{fill:#00AFEC;stroke:#010101;stroke-width:3;}
	.st4{fill:none;stroke:#010101;stroke-width:4;}
	.st5{fill:none;stroke:#010101;stroke-width:4;stroke-miterlimit:10;}
	.st6{font-family:'MyriadPro-Regular';}
	.st7{font-size:120px;}
	.st8{font-size:60px;}
</style>
<g>
	<g id="Vuoto">
		
			<rect x="3160.4" y="1599" transform="matrix(-1.836970e-16 1 -1 -1.836970e-16 5267.4019 -1448.5355)" class="st0" width="395.1" height="620.8"/>
		
			<rect x="2621.2" y="411.6" transform="matrix(-1.836970e-16 1 -1 -1.836970e-16 3346.2622 -2121.8027)" class="st0" width="225.7" height="401.3"/>
		
			<rect x="2531.1" y="1203.2" transform="matrix(-1.836970e-16 1 -1 -1.836970e-16 4137.9438 -1330.1212)" class="st0" width="405.9" height="401.3"/>
		
			<rect x="2332.7" y="524.4" transform="matrix(-1.836970e-16 1 -1 -1.836970e-16 3057.8093 -1833.3496)" class="st0" width="225.7" height="175.6"/>
		
			<rect x="933.2" y="311.2" transform="matrix(-1.836970e-16 1 -1 -1.836970e-16 1658.3492 -433.8896)" class="st0" width="225.7" height="602"/>
		
			<rect x="734.5" y="1213.4" transform="matrix(-1.836970e-16 1 -1 -1.836970e-16 2342.1128 467.1682)" class="st0" width="405.9" height="382.5"/>
		
			<rect x="1664.8" y="1342.3" transform="matrix(-1.836970e-16 1 -1 -1.836970e-16 3271.5388 -298.4086)" class="st0" width="240.4" height="288.5"/>
		
			<rect x="2110.1" y="1183.5" transform="matrix(-1.836970e-16 1 -1 -1.836970e-16 3716.8499 -743.7197)" class="st0" width="240.4" height="606.2"/>
		<line class="st0" x1="1138.1" y1="1961.6" x2="2533.4" y2="1961.6"/>
	</g>
	<g id="Base">
		
			<rect x="780.7" y="-780.7" transform="matrix(-1.836970e-16 1 -1 -1.836970e-16 2887.665 -780.7042)" class="st1" width="2107" height="3668.4"/>
		<g id="Stair_3_">
			
				<rect x="739.9" y="1708.8" transform="matrix(-1.836970e-16 1 -1 -1.836970e-16 2846.9058 971.9607)" class="st2" width="395.1" height="401.3"/>
			<path class="st0" d="M735.9,2066.2l86,0.8c0,0,1.8-68.4-85.1-68.4"/>
			<path class="st0" d="M1138.1,1755.7h-85.2c0,0-1.6,66.7,85.2,66.7"/>
		</g>
		<g id="Stair_1_">
			
				<rect x="2536.5" y="1708.8" transform="matrix(-1.836970e-16 1 -1 -1.836970e-16 4643.4658 -824.5992)" class="st2" width="395.1" height="401.3"/>
			<path class="st0" d="M2535.8,1819.2h86.1c0,0,2.9-62-88.6-62"/>
			<path class="st0" d="M2934.7,2019.3h-86.8c0,0-9.5-65.2,86.8-65.2"/>
		</g>
		<g id="Stair_2_">
			
				<rect x="2536.5" y="-3.1" transform="matrix(-1.836970e-16 1 -1 -1.836970e-16 2931.5601 -2536.5049)" class="st2" width="395.1" height="401.3"/>
			<path class="st0" d="M2646.3,395.1v-85.9c0,0-65.4-3.2-65.4,85.9"/>
			<path class="st0" d="M2934.7,29.5h-85.8c0,0-9.5,65.6,85.8,65.6"/>
		</g>
		<g id="Stair">
			
				<rect x="739.9" y="-3.1" transform="matrix(-1.836970e-16 1 -1 -1.836970e-16 1134.9996 -739.9445)" class="st2" width="395.1" height="401.3"/>
			<path class="st0" d="M736.8,104.9h86.1c0,0,0.7-66.7-86.1-66.7"/>
			<path class="st0" d="M1079.5,395.1v-84.9c0,0-66.5,11.8-66.5,84.9"/>
		</g>
	</g>
	<g id="Rooms">
		<g id="_x32_">
			
				<rect x="1264.8" y="1230" transform="matrix(-1.836970e-16 1 -1 -1.836970e-16 2872.3936 100.7367)" class="st3" width="242.1" height="513.1"/>
		</g>
		<g id="_x31_">
			
				<rect x="3248.2" y="1202.2" transform="matrix(-1.836970e-16 1 -1 -1.836970e-16 4870.6177 -1845.3199)" class="st3" width="219.5" height="620.8"/>
		</g>
		<g id="AulaStudio_3_">
			
				<rect x="1739.1" y="107.4" transform="matrix(-1.836970e-16 1 -1 -1.836970e-16 2464.1814 -1239.7218)" class="st3" width="225.7" height="1009.6"/>
			<path class="st0" d="M1385.8,499.4v85.9c0,0,65.7-15.8,65.7-85.9"/>
			<path class="st0" d="M2246.3,499.4v85.9c0,0,67.7-6.8,67.7-85.9"/>
		</g>
		<g id="A108">
			
				<rect x="2495.7" y="762.7" transform="matrix(-1.836970e-16 1 -1 -1.836970e-16 3697.4224 -1770.6425)" class="st3" width="476.6" height="401.3"/>
			<path class="st0" d="M2934.7,1096.8h-87.6c0,0,0.3,68.9,87.6,68.9"/>
			<path class="st0" d="M2934.7,789.8h-87.6c0,0,0.3,65.4,87.6,65.4"/>
		</g>
		<g id="A107">
			
				<rect x="699.2" y="772.1" transform="matrix(-1.836970e-16 1 -1 -1.836970e-16 1900.8624 25.9174)" class="st3" width="476.6" height="382.5"/>
			<path class="st0" d="M746.2,843h85.9c0,0-15.1-64.2-85.9-64.2"/>
			<path class="st0" d="M746.2,1153.3h85.9c0,0-15.1-66.7-85.9-66.7"/>
		</g>
		<g id="A106">
			
				<rect x="43.9" y="-43.9" transform="matrix(-1.836970e-16 1 -1 -1.836970e-16 576.9059 -43.895)" class="st3" width="533" height="620.8"/>
			<path class="st0" d="M620.8,41.4h-86.9c0,0,1.7,65.2,86.9,65.2"/>
			<path class="st0" d="M620.8,411.1h-86.9c0,0,1,64,86.9,64"/>
		</g>
		<g id="A105">
			
				<rect x="50.2" y="482.8" transform="matrix(-1.836970e-16 1 -1 -1.836970e-16 1103.6461 482.8452)" class="st3" width="520.5" height="620.8"/>
			<path class="st0" d="M620.8,578.9h-86.9c0,0-3.3,64.3,86.9,64.3"/>
			<path class="st0" d="M620.8,950.2h-86.9c0,0-2.3,64.8,86.9,64.8"/>
		</g>
		<g id="A104">
			
				<rect x="68.5" y="985" transform="matrix(-1.836970e-16 1 -1 -1.836970e-16 1606.4181 984.9835)" class="st3" width="484.4" height="621.4"/>
			<path class="st0" d="M621.4,1086.6h-87.5c0,0-1.2,66.7,86.9,66.7"/>
			<path class="st0" d="M620.8,1448.5h-86.9c0,0-4.2,62.9,86.9,62.9"/>
		</g>
		<g id="A103">
			
				<rect x="26.2" y="1512" transform="matrix(-1.836970e-16 1 -1 -1.836970e-16 2133.1582 1511.7238)" class="st3" width="569" height="620.8"/>
			<path class="st0" d="M620.8,1574.3h-86.9c0,0-5.2,66.9,86.9,66.9"/>
			<path class="st0" d="M620.8,1999.3h-87c0,0-7.2,67.7,87,67.7"/>
		</g>
		<g id="A102">
			
				<rect x="3097.7" y="832.3" transform="matrix(-1.836970e-16 1 -1 -1.836970e-16 4500.645 -2215.2922)" class="st3" width="520.5" height="620.8"/>
			<path class="st0" d="M3047.4,1015l87.8,0c0,0-2.4-63.7-87.8-63.7"/>
			<path class="st0" d="M3047.4,1359.3h87.8c0,0,0.6-64.6-87.8-64.6"/>
		</g>
		<g id="A101_2_">
			
				<rect x="3001.3" y="217.5" transform="matrix(-1.836970e-16 1 -1 -1.836970e-16 3885.9441 -2830.176)" class="st3" width="713.5" height="620.8"/>
			<path class="st0" d="M3049.6,359h85.6c0,0-3.3-64.8-87.8-64.8"/>
			<path class="st0" d="M3049.6,788l85.6-1.8c0,0-1-61.2-85.6-61.2"/>
		</g>
		
			<rect id="Entrata" x="1769" y="1810.7" transform="matrix(-1.836970e-16 1 -1 -1.836970e-16 3730.6106 88.2558)" class="st0" width="104.3" height="197.5"/>
	</g>
	<g id="Paths">
		<line class="st0" x1="1821.2" y1="1854" x2="1821.2" y2="1661.1"/>
		<line class="st0" x1="1197.4" y1="1661.1" x2="1821.2" y2="1661.1"/>
		<line class="st0" x1="2461.7" y1="1661.1" x2="1821.2" y2="1661.1"/>
		<line class="st4" x1="3047.4" y1="359" x2="2990.8" y2="359"/>
		<line class="st0" x1="2990.8" y1="786.3" x2="3047.4" y2="787.8"/>
		<line class="st0" x1="2934.7" y1="789.8" x2="2990.8" y2="786.3"/>
		<line class="st0" x1="2990.8" y1="1015" x2="2990.8" y2="786.3"/>
		<line class="st0" x1="3047.4" y1="1015" x2="2990.8" y2="1015"/>
		<line class="st0" x1="2990.8" y1="1096.8" x2="2990.8" y2="1015"/>
		<line class="st0" x1="2934.7" y1="1096.8" x2="2990.8" y2="1096.8"/>
		<line class="st0" x1="2990.8" y1="1359.3" x2="2990.8" y2="1096.8"/>
		<line class="st0" x1="3049.6" y1="1359.3" x2="2990.8" y2="1359.3"/>
		<line class="st0" x1="2990.8" y1="1661.1" x2="2990.8" y2="1359.3"/>
		<line class="st0" x1="2461.7" y1="1817.5" x2="2535.8" y2="1817.5"/>
		<line class="st0" x1="2461.7" y1="1817.5" x2="2461.7" y2="1661.1"/>
		<line class="st0" x1="2990.8" y1="1661.1" x2="2461.7" y2="1661.1"/>
		<line class="st0" x1="621.4" y1="1998.6" x2="675.4" y2="1998.6"/>
		<line class="st0" x1="736.8" y1="2067" x2="675.4" y2="2067"/>
		<line class="st0" x1="675.4" y1="1998.6" x2="675.4" y2="2067"/>
		<line class="st0" x1="675.4" y1="1661.1" x2="675.4" y2="1998.6"/>
		<line class="st0" x1="621.4" y1="1574.3" x2="675.4" y2="1574.3"/>
		<line class="st0" x1="621.4" y1="1448.5" x2="675.4" y2="1448.5"/>
		<line class="st0" x1="746.2" y1="1153.3" x2="675.4" y2="1153.3"/>
		<line class="st0" x1="745.8" y1="843" x2="675.4" y2="843"/>
		<line class="st0" x1="620.8" y1="950.2" x2="675.4" y2="950.2"/>
		<line class="st0" x1="620.8" y1="1086.6" x2="675.4" y2="1086.6"/>
		<line class="st0" x1="675.4" y1="843" x2="675.4" y2="950.2"/>
		<line class="st0" x1="675.4" y1="1086.6" x2="675.4" y2="950.2"/>
		<line class="st0" x1="675.4" y1="1153.3" x2="675.4" y2="1448.5"/>
		<line class="st0" x1="675.4" y1="1086.6" x2="675.4" y2="1153.3"/>
		<line class="st0" x1="675.4" y1="1574.3" x2="675.4" y2="1448.5"/>
		<line class="st0" x1="675.4" y1="1661.1" x2="675.4" y2="1574.3"/>
		<line class="st0" x1="620.8" y1="578.9" x2="675.4" y2="578.9"/>
		<line class="st0" x1="621.4" y1="410.5" x2="675.4" y2="410.5"/>
		<line class="st0" x1="620.8" y1="41.4" x2="675.4" y2="41.4"/>
		<line class="st0" x1="736.8" y1="106.5" x2="675.4" y2="106.5"/>
		<line class="st0" x1="675.4" y1="41.4" x2="675.4" y2="106.5"/>
		<line class="st0" x1="675.4" y1="106.5" x2="675.4" y2="410.5"/>
		<line class="st0" x1="675.4" y1="843" x2="675.4" y2="578.9"/>
		<line class="st0" x1="675.4" y1="449" x2="1079.5" y2="449"/>
		<line class="st0" x1="675.4" y1="410.5" x2="675.4" y2="449"/>
		<line class="st0" x1="675.4" y1="578.9" x2="675.4" y2="449"/>
		<line class="st0" x1="1079.5" y1="395.1" x2="1079.5" y2="449"/>
		<line class="st0" x1="1385.8" y1="499.4" x2="1385.8" y2="449"/>
		<line class="st0" x1="1079.5" y1="449" x2="1385.8" y2="449"/>
		<line class="st0" x1="2246.3" y1="499.4" x2="2246.3" y2="449"/>
		<line class="st0" x1="1385.8" y1="449" x2="2246.3" y2="449"/>
		<line class="st0" x1="2646.3" y1="395.1" x2="2646.3" y2="449"/>
		<line class="st0" x1="2246.3" y1="449" x2="2646.3" y2="449"/>
		<line class="st0" x1="2932.8" y1="29.5" x2="2990.8" y2="29.5"/>
		<line class="st0" x1="2990.8" y1="359" x2="2990.8" y2="29.5"/>
		<line class="st0" x1="2990.8" y1="449" x2="2646.3" y2="449"/>
		<line class="st4" x1="2990.8" y1="359" x2="2990.8" y2="449"/>
		<line class="st4" x1="2990.8" y1="786.3" x2="2990.8" y2="449"/>
		<line class="st4" x1="1138.1" y1="1755.7" x2="1197.4" y2="1755.7"/>
		<line class="st4" x1="1197.4" y1="1661.1" x2="1197.4" y2="1755.7"/>
		<line class="st0" x1="675.4" y1="1661.1" x2="1197.4" y2="1661.1"/>
		<line class="st0" x1="2934.7" y1="2019.3" x2="2990.8" y2="2019.3"/>
		<line class="st0" x1="2990.8" y1="1661.1" x2="2990.8" y2="2019.3"/>
	</g>
	<g id="Doors">
		<line id="A103_1_" class="st4" x1="621.4" y1="1998.6" x2="585.6" y2="2036.9"/>
		<line id="A103_2_" class="st4" x1="621.4" y1="1574.3" x2="585.6" y2="1612.6"/>
		<line id="A104_1_" class="st4" x1="621.4" y1="1448.5" x2="585.6" y2="1486.8"/>
		<line id="A104_2_" class="st4" x1="620.8" y1="1086.6" x2="585" y2="1124.9"/>
		<line id="A105_1_" class="st4" x1="620.8" y1="950.2" x2="585" y2="988.5"/>
		<line id="A105_2_" class="st4" x1="620.8" y1="578.9" x2="585" y2="617.2"/>
		<line id="A106_1_" class="st4" x1="621.4" y1="410.5" x2="585.6" y2="448.8"/>
		<line id="A016" class="st4" x1="620.8" y1="41.4" x2="585" y2="79.7"/>
		<line id="A107_1_" class="st4" x1="745.8" y1="843" x2="790.7" y2="798.1"/>
		<line id="A107_2_" class="st4" x1="746.2" y1="1153.3" x2="791.1" y2="1108.4"/>
		<line id="AulaStudio_1_" class="st4" x1="1385.8" y1="499.4" x2="1416.1" y2="529.6"/>
		<line id="AulaStudio_2_" class="st4" x1="2246.3" y1="498.4" x2="2276.6" y2="528.6"/>
		<line id="A108_1_" class="st4" x1="2934.7" y1="789.8" x2="2898.2" y2="826.3"/>
		<line id="A108_2_" class="st4" x1="2934.7" y1="1096.8" x2="2898.2" y2="1133.3"/>
		<line id="A101" class="st4" x1="3047.4" y1="359" x2="3092.6" y2="313.8"/>
		<line id="A101_1_" class="st4" x1="3047.4" y1="787.8" x2="3092.5" y2="742.7"/>
		<line id="A102_1_" class="st4" x1="3047.4" y1="1015" x2="3092.5" y2="969.9"/>
		<line id="A102_2_" class="st4" x1="3049.6" y1="1359.3" x2="3094.7" y2="1314.2"/>
		<line id="Entrata_1_" class="st4" x1="1821.2" y1="1854" x2="1851.1" y2="1884"/>
	</g>
	<g id="Portals">
		<line id="Stair.1.floor2" class="st5" x1="736.8" y1="2067" x2="776.5" y2="2027.2"/>
		<line id="Stair.2.floor2" class="st5" x1="1138.1" y1="1755.7" x2="1095.7" y2="1788"/>
		<line id="Stair.3.floor2" class="st5" x1="2535.8" y1="1817.5" x2="2575.1" y2="1778.2"/>
		<line id="Stair.4.floor2" class="st5" x1="2934.7" y1="2019.3" x2="2889.9" y2="1974.5"/>
		<line id="Stair.5.floor2" class="st5" x1="2932.8" y1="29.5" x2="2890.4" y2="61.8"/>
		<line id="Stair.6.floor2" class="st5" x1="2646.3" y1="395.1" x2="2601.5" y2="350.3"/>
		<line id="Stair.7.floor2" class="st5" x1="1079.5" y1="395.1" x2="1044.8" y2="360.4"/>
		<line id="Stair.8.floor2" class="st5" x1="736.8" y1="106.5" x2="775.7" y2="67.6"/>
	</g>
	<g id="RoomsName">
		<text transform="matrix(1 0 0 1 3264.1318 559.3328)" class="st6 st7">A101</text>
		<text transform="matrix(1 0 0 1 3264.1326 1179.2686)" class="st6 st7">A102</text>
		<text transform="matrix(1 0 0 1 173.5286 309.3107)" class="st6 st7">A106</text>
		<text transform="matrix(1 0 0 1 173.5288 825.308)" class="st6 st7">A105</text>
		<text transform="matrix(1 0 0 1 173.5289 1343.2329)" class="st6 st7">A104</text>
		<text transform="matrix(1 0 0 1 173.5293 1854.0234)" class="st6 st7">A103</text>
		<text transform="matrix(1 0 0 1 1342.8025 1524.4246)" class="st6 st7">2</text>
		<text transform="matrix(1 0 0 1 2590.1313 995.6212)" class="st6 st7">A108</text>
		<text transform="matrix(1 0 0 1 3362.4092 1547.8448)" class="st6 st7">1</text>
		<text transform="matrix(1 0 0 1 814.1316 989.5851)" class="st6 st7">A107</text>
		<text id="AulaStudio" transform="matrix(1 0 0 1 1572.6589 649.3279)" class="st6 st7">Aula Studio</text>
		<text id="Entrata_2_" transform="matrix(1 0 0 1 1735.6926 1926.2816)" class="st6 st8">Entrata</text>
	</g>
</g>
</svg>
