<?xml version="1.0" encoding="utf-8"?>
<!-- Generator: Adobe Illustrator 21.0.2, SVG Export Plug-In . SVG Version: 6.00 Build 0)  -->
<svg version="1.1" id="Livello_1" xmlns="http://www.w3.org/2000/svg" xmlns:xlink="http://www.w3.org/1999/xlink" x="0px" y="0px"
	 viewBox="0 0 3968.5 2834.6" style="enable-background:new 0 0 3968.5 2834.6;" xml:space="preserve">
<style type="text/css">
	.st0{fill:none;stroke:#010101;stroke-width:3;}
	.st1{fill:none;stroke:#000000;stroke-width:3;}
	.st2{fill:#939598;stroke:#000000;stroke-width:3;}
	.st3{fill:#00AFEC;stroke:#010101;stroke-width:3;}
	.st4{fill:#FFFFFF;stroke:#000000;stroke-width:3;stroke-miterlimit:10;}
	.st5{fill:none;stroke:#000000;stroke-width:3;stroke-miterlimit:10;}
	.st6{font-family:'MyriadPro-Regular';}
	.st7{font-size:100px;}
</style>
<g>
	<g id="Vuoto">
		<rect x="892.1" y="878.1" class="st0" width="388.5" height="217.6"/>
		<rect x="2691.6" y="878.1" class="st0" width="393.1" height="1106.4"/>
		<rect x="892.1" y="1290.9" class="st0" width="388.5" height="693.5"/>
	</g>
	<g id="Base_1_">
		
			<rect x="930.8" y="-402" transform="matrix(-1.836970e-16 1 -1 -1.836970e-16 3416.4041 -552.0959)" class="st1" width="2107" height="3668.4"/>
		<g id="Stair_7_">
			
				<rect x="2686.6" y="375.5" transform="matrix(-1.836970e-16 1 -1 -1.836970e-16 3460.2991 -2307.8965)" class="st2" width="395.1" height="401.3"/>
			<path id="path3902_34_" inkscape:connector-curvature="0" sodipodi:nodetypes="ccc" class="st0" d="M3084.8,408.2h-87.6
				c11.8,45.9,38.9,70.7,87.6,66.2V408.2z"/>
			<path id="path3902_33_" inkscape:connector-curvature="0" sodipodi:nodetypes="ccc" class="st0" d="M2730.2,773.7
				c-4.5-48.7,20.3-75.8,66.2-87.6v87.6H2730.2z"/>
		</g>
		<g id="Stair_6_">
			
				<rect x="2686.6" y="2087.4" transform="matrix(-1.836970e-16 1 -1 -1.836970e-16 5172.2046 -595.9909)" class="st2" width="395.1" height="401.3"/>
			<path id="path3902_32_" inkscape:connector-curvature="0" sodipodi:nodetypes="ccc" class="st0" d="M2767.6,2090.1
				c4.5,48.7-20.3,75.8-66.2,87.6v-87.6H2767.6z"/>
			<path id="path3902_31_" inkscape:connector-curvature="0" sodipodi:nodetypes="ccc" class="st0" d="M3084.8,2464.2
				c-48.7,4.5-75.8-20.3-87.6-66.2h87.6V2464.2z"/>
		</g>
		<g id="Stair_5_">
			
				<rect x="890" y="2087.4" transform="matrix(-1.836970e-16 1 -1 -1.836970e-16 3375.6448 1200.569)" class="st2" width="395.1" height="401.3"/>
			<path id="path3902_30_" inkscape:connector-curvature="0" sodipodi:nodetypes="ccc" class="st0" d="M1203.5,2090.6v87.6
				c45.9-11.8,70.7-38.9,66.2-87.6H1203.5z"/>
			<path id="path3902_29_" inkscape:connector-curvature="0" sodipodi:nodetypes="ccc" class="st0" d="M886.9,2444.8h87.6
				c-11.8-45.9-38.9-70.7-87.6-66.2V2444.8z"/>
		</g>
		<g id="Stair_4_">
			
				<rect x="890" y="375.5" transform="matrix(-1.836970e-16 1 -1 -1.836970e-16 1663.7389 -511.3362)" class="st2" width="395.1" height="401.3"/>
			<path id="path3902_28_" inkscape:connector-curvature="0" sodipodi:nodetypes="ccc" class="st0" d="M886.9,420.6
				c48.7-4.5,75.8,20.3,87.6,66.2h-87.6V420.6z"/>
			<path id="path3902_26_" inkscape:connector-curvature="0" sodipodi:nodetypes="ccc" class="st0" d="M1163.4,773.7
				c-4.5-48.7,20.3-75.8,66.2-87.6v87.6H1163.4z"/>
		</g>
	</g>
	<g id="Rooms">
		<g id="A212">
			<rect x="1288.2" y="2090.6" class="st3" width="344" height="394"/>
			<path id="path3902_11_" inkscape:connector-curvature="0" sodipodi:nodetypes="ccc" class="st0" d="M1362.7,2090.6
				c4.5,48.7-20.3,75.8-66.2,87.6v-87.6H1362.7z"/>
			<path id="path3902_12_" inkscape:connector-curvature="0" sodipodi:nodetypes="ccc" class="st0" d="M1619.9,2090.6
				c4.5,48.7-20.3,75.8-66.2,87.6v-87.6H1619.9z"/>
		</g>
		<g id="A211">
			<rect x="1632.2" y="2090.6" class="st3" width="258.3" height="394"/>
			<path id="path3902_13_" inkscape:connector-curvature="0" sodipodi:nodetypes="ccc" class="st0" d="M1704.8,2090.6
				c4.5,48.7-20.3,75.8-66.2,87.6v-87.6H1704.8z"/>
			<path id="path3902_14_" inkscape:connector-curvature="0" sodipodi:nodetypes="ccc" class="st0" d="M1884,2090.6
				c4.5,48.7-20.3,75.8-66.2,87.6v-87.6H1884z"/>
		</g>
		<g id="A210">
			<rect x="1892.5" y="2090.6" class="st3" width="455.6" height="394"/>
			<path id="path3902_15_" inkscape:connector-curvature="0" sodipodi:nodetypes="ccc" class="st0" d="M1969.4,2090.1
				c4.5,48.7-20.3,75.8-66.2,87.6v-87.6H1969.4z"/>
			<path id="path3902_16_" inkscape:connector-curvature="0" sodipodi:nodetypes="ccc" class="st0" d="M2338.8,2090.1
				c4.5,48.7-20.3,75.8-66.2,87.6v-87.6H2338.8z"/>
		</g>
		<g id="A209">
			<rect x="2348.1" y="2090.6" class="st3" width="341.2" height="394"/>
			<path id="path3902_17_" inkscape:connector-curvature="0" sodipodi:nodetypes="ccc" class="st0" d="M2425.5,2090.1
				c4.5,48.7-20.3,75.8-66.2,87.6v-87.6H2425.5z"/>
			<path id="path3902_18_" inkscape:connector-curvature="0" sodipodi:nodetypes="ccc" class="st0" d="M2678.6,2090.1
				c4.5,48.7-20.3,75.8-66.2,87.6v-87.6H2678.6z"/>
		</g>
		<g id="A203">
			<rect x="3182.2" y="2133.9" class="st3" width="632.5" height="350.7"/>
			<path id="path3902_55_" inkscape:connector-curvature="0" sodipodi:nodetypes="ccc" class="st0" d="M3182.2,2391.1
				c48.7-4.5,75.8,20.3,87.6,66.2h-87.6V2391.1z"/>
			<path id="path3902_56_" inkscape:connector-curvature="0" sodipodi:nodetypes="ccc" class="st0" d="M3183,2144.8
				c48.7-4.5,75.8,20.3,87.6,66.2H3183V2144.8z"/>
		</g>
		<g id="A202">
			<rect x="3182.2" y="1690.3" class="st3" width="632.5" height="443.6"/>
			<path id="path3902_53_" inkscape:connector-curvature="0" sodipodi:nodetypes="ccc" class="st0" d="M3183,1709.6
				c48.7-4.5,75.8,20.3,87.6,66.2H3183V1709.6z"/>
			<path id="path3902_54_" inkscape:connector-curvature="0" sodipodi:nodetypes="ccc" class="st0" d="M3183,2050.4
				c48.7-4.5,75.8,20.3,87.6,66.2H3183V2050.4z"/>
		</g>
		<g id="A201">
			<rect x="3182.2" y="1191.2" class="st3" width="636.2" height="499"/>
			<path id="path3902_51_" inkscape:connector-curvature="0" sodipodi:nodetypes="ccc" class="st0" d="M3183,1199.1
				c48.7-4.5,75.8,20.3,87.6,66.2H3183V1199.1z"/>
			<path id="path3902_52_" inkscape:connector-curvature="0" sodipodi:nodetypes="ccc" class="st0" d="M3183,1609.8
				c48.7-4.5,75.8,20.3,87.6,66.2H3183V1609.8z"/>
		</g>
		<g id="_x31_">
			<rect x="3182.2" y="378" class="st3" width="636.2" height="813.3"/>
		</g>
		<g id="A224">
			<rect x="2342.7" y="378.7" class="st3" width="341.2" height="395.1"/>
			<path id="path3902_41_" inkscape:connector-curvature="0" sodipodi:nodetypes="ccc" class="st0" d="M2350.2,773.7
				c-4.5-48.7,20.3-75.8,66.2-87.6v87.6H2350.2z"/>
			<path id="path3902_42_" inkscape:connector-curvature="0" sodipodi:nodetypes="ccc" class="st0" d="M2604.3,773.7
				c-4.5-48.7,20.3-75.8,66.2-87.6v87.6H2604.3z"/>
		</g>
		<g id="A223">
			<rect x="2088.4" y="378.7" class="st3" width="254.2" height="395.1"/>
			<path id="path3902_39_" inkscape:connector-curvature="0" sodipodi:nodetypes="ccc" class="st0" d="M2095.2,773.7
				c-4.5-48.7,20.3-75.8,66.2-87.6v87.6H2095.2z"/>
			<path id="path3902_40_" inkscape:connector-curvature="0" sodipodi:nodetypes="ccc" class="st0" d="M2267.6,773.7
				c-4.5-48.7,20.3-75.8,66.2-87.6v87.6H2267.6z"/>
		</g>
		<g id="A222">
			<rect x="1626.8" y="378.7" class="st3" width="461.7" height="395.1"/>
			<path id="path3902_37_" inkscape:connector-curvature="0" sodipodi:nodetypes="ccc" class="st0" d="M1633.8,773.7
				c-4.5-48.7,20.3-75.8,66.2-87.6v87.6H1633.8z"/>
			<path id="path3902_38_" inkscape:connector-curvature="0" sodipodi:nodetypes="ccc" class="st0" d="M2008.4,773.7
				c-4.5-48.7,20.3-75.8,66.2-87.6v87.6H2008.4z"/>
		</g>
		<g id="A221">
			<rect x="1288.7" y="378.7" class="st3" width="338.1" height="395.1"/>
			<path id="path3902_35_" inkscape:connector-curvature="0" sodipodi:nodetypes="ccc" class="st0" d="M1297.1,773.7
				c-4.5-48.7,20.3-75.8,66.2-87.6v87.6H1297.1z"/>
			<path id="path3902_36_" inkscape:connector-curvature="0" sodipodi:nodetypes="ccc" class="st0" d="M1547.9,773.7
				c-4.5-48.7,20.3-75.8,66.2-87.6v87.6H1547.9z"/>
		</g>
		<g id="A220">
			<rect x="1280.9" y="878.1" class="st3" width="345.8" height="242"/>
			<path id="path3902_49_" inkscape:connector-curvature="0" sodipodi:nodetypes="ccc" class="st0" d="M1356.9,878.1
				c4.5,48.7-20.3,75.8-66.2,87.6v-87.6H1356.9z"/>
			<path id="path3902_50_" inkscape:connector-curvature="0" sodipodi:nodetypes="ccc" class="st0" d="M1607.2,878.1
				c4.5,48.7-20.3,75.8-66.2,87.6v-87.6H1607.2z"/>
		</g>
		<g id="A219">
			<rect x="1626.7" y="878.1" class="st3" width="355.9" height="242"/>
			<path id="path3902_47_" inkscape:connector-curvature="0" sodipodi:nodetypes="ccc" class="st0" d="M1705.2,878.1
				c4.5,48.7-20.3,75.8-66.2,87.6v-87.6H1705.2z"/>
			<path id="path3902_48_" inkscape:connector-curvature="0" sodipodi:nodetypes="ccc" class="st0" d="M1969.2,878.1
				c4.5,48.7-20.3,75.8-66.2,87.6v-87.6H1969.2z"/>
		</g>
		<g id="A218">
			<rect x="1980.8" y="878.1" class="st3" width="361" height="242"/>
			<path id="path3902_45_" inkscape:connector-curvature="0" sodipodi:nodetypes="ccc" class="st0" d="M2059,878.1
				c4.5,48.7-20.3,75.8-66.2,87.6v-87.6H2059z"/>
			<path id="path3902_46_" inkscape:connector-curvature="0" sodipodi:nodetypes="ccc" class="st0" d="M2332.1,878.1
				c4.5,48.7-20.3,75.8-66.2,87.6v-87.6H2332.1z"/>
		</g>
		<g id="A217">
			<rect x="2341.8" y="878.1" class="st3" width="349.8" height="242"/>
			<path id="path3902_43_" inkscape:connector-curvature="0" sodipodi:nodetypes="ccc" class="st0" d="M2679.7,878.1
				c4.5,48.7-20.3,75.8-66.2,87.6v-87.6H2679.7z"/>
			<path id="path3902_44_" inkscape:connector-curvature="0" sodipodi:nodetypes="ccc" class="st0" d="M2428.2,878.1
				c4.5,48.7-20.3,75.8-66.2,87.6v-87.6H2428.2z"/>
		</g>
		<g id="A216">
			<rect x="2346.3" y="1742.4" class="st3" width="345.8" height="242"/>
			<path id="path3902_19_" inkscape:connector-curvature="0" sodipodi:nodetypes="ccc" class="st0" d="M2613,1984.5
				c-4.5-48.7,20.3-75.8,66.2-87.6v87.6H2613z"/>
			<path id="path3902_20_" inkscape:connector-curvature="0" sodipodi:nodetypes="ccc" class="st0" d="M2355.9,1984.5
				c-4.5-48.7,20.3-75.8,66.2-87.6v87.6H2355.9z"/>
		</g>
		<g id="A215">
			<rect x="1990.4" y="1742.4" class="st3" width="355.9" height="242"/>
			<path id="path3902_21_" inkscape:connector-curvature="0" sodipodi:nodetypes="ccc" class="st0" d="M2273.2,1984.5
				c-4.5-48.7,20.3-75.8,66.2-87.6v87.6H2273.2z"/>
			<path id="path3902_22_" inkscape:connector-curvature="0" sodipodi:nodetypes="ccc" class="st0" d="M2002.6,1984.5
				c-4.5-48.7,20.3-75.8,66.2-87.6v87.6H2002.6z"/>
		</g>
		<g id="A214">
			<rect x="1630.4" y="1742.4" class="st3" width="360" height="242"/>
			<path id="path3902_23_" inkscape:connector-curvature="0" sodipodi:nodetypes="ccc" class="st0" d="M1910.7,1984.5
				c-4.5-48.7,20.3-75.8,66.2-87.6v87.6H1910.7z"/>
			<path id="path3902_24_" inkscape:connector-curvature="0" sodipodi:nodetypes="ccc" class="st0" d="M1639.2,1984.5
				c-4.5-48.7,20.3-75.8,66.2-87.6v87.6H1639.2z"/>
		</g>
		<g id="A213">
			<rect x="1280.5" y="1742.4" class="st3" width="349.8" height="242"/>
			<path id="path3902_25_" inkscape:connector-curvature="0" sodipodi:nodetypes="ccc" class="st0" d="M1554.3,1984.5
				c-4.5-48.7,20.3-75.8,66.2-87.6v87.6H1554.3z"/>
			<path id="path3902_27_" inkscape:connector-curvature="0" sodipodi:nodetypes="ccc" class="st0" d="M1287.6,1984.5
				c-4.5-48.7,20.3-75.8,66.2-87.6v87.6H1287.6z"/>
		</g>
		<g id="_x32_">
			<rect x="892.1" y="1095.7" class="st3" width="388.5" height="195.2"/>
		</g>
		<g id="A208">
			<rect x="150.1" y="380.3" class="st3" width="616.9" height="369.7"/>
			<path id="path3902_1_" inkscape:connector-curvature="0" sodipodi:nodetypes="ccc" class="st0" d="M767,477.2
				c-48.7,4.5-75.8-20.3-87.6-66.2H767V477.2z"/>
			<path id="path3902_2_" inkscape:connector-curvature="0" sodipodi:nodetypes="ccc" class="st0" d="M767,729.4
				c-48.7,4.5-75.8-20.3-87.6-66.2H767V729.4z"/>
		</g>
		<g id="A207">
			<rect x="150.1" y="749.9" class="st3" width="616.9" height="439.3"/>
			<path id="path3902_3_" inkscape:connector-curvature="0" sodipodi:nodetypes="ccc" class="st0" d="M767,862.2
				c-48.7,4.5-75.8-20.3-87.6-66.2H767V862.2z"/>
			<path id="path3902_4_" inkscape:connector-curvature="0" sodipodi:nodetypes="ccc" class="st0" d="M767,1176.1
				c-48.7,4.5-75.8-20.3-87.6-66.2H767V1176.1z"/>
		</g>
		<g id="A206">
			<rect x="150.1" y="1189.2" class="st3" width="616.9" height="485.1"/>
			<path id="path3902_5_" inkscape:connector-curvature="0" sodipodi:nodetypes="ccc" class="st0" d="M767,1279.7
				c-48.7,4.5-75.8-20.3-87.6-66.2H767V1279.7z"/>
			<path id="path3902_6_" inkscape:connector-curvature="0" sodipodi:nodetypes="ccc" class="st0" d="M767,1643.3
				c-48.7,4.5-75.8-20.3-87.6-66.2H767V1643.3z"/>
		</g>
		<g id="A205">
			<rect x="150.1" y="1674.3" class="st3" width="616.9" height="442.4"/>
			<path id="path3902_7_" inkscape:connector-curvature="0" sodipodi:nodetypes="ccc" class="st0" d="M767,1756.3
				c-48.7,4.5-75.8-20.3-87.6-66.2H767V1756.3z"/>
			<path id="path3902_8_" inkscape:connector-curvature="0" sodipodi:nodetypes="ccc" class="st0" d="M767,2097.3
				c-48.7,4.5-75.8-20.3-87.6-66.2H767V2097.3z"/>
		</g>
		<g id="A204">
			<rect x="150.1" y="2116.7" class="st3" width="616.9" height="369"/>
			<path id="path3902_9_" inkscape:connector-curvature="0" sodipodi:nodetypes="ccc" class="st0" d="M767,2200.5
				c-48.7,4.5-75.8-20.3-87.6-66.2H767V2200.5z"/>
			<path id="path3902_10_" inkscape:connector-curvature="0" sodipodi:nodetypes="ccc" class="st0" d="M767,2464.6
				c-48.7,4.5-75.8-20.3-87.6-66.2H767V2464.6z"/>
		</g>
	</g>
	<g id="Paths">
		<line class="st0" x1="767" y1="444.4" x2="826.4" y2="444.4"/>
		<line class="st0" x1="767" y1="700.6" x2="826.2" y2="700.6"/>
		<line class="st0" x1="767" y1="818.3" x2="826.2" y2="818.3"/>
		<line class="st0" x1="767" y1="1143.3" x2="826.2" y2="1143.3"/>
		<line class="st0" x1="767" y1="1246.9" x2="826.2" y2="1246.9"/>
		<line class="st0" x1="767" y1="1610.5" x2="826.2" y2="1610.5"/>
		<line class="st0" x1="767" y1="1723.5" x2="826.2" y2="1723.5"/>
		<line class="st0" x1="767" y1="2064.5" x2="826.2" y2="2064.5"/>
		<line class="st0" x1="767" y1="2167.7" x2="826.2" y2="2167.7"/>
		<line class="st0" x1="767" y1="2431.8" x2="826.2" y2="2431.8"/>
		<line class="st0" x1="3182.2" y1="2431.4" x2="3137" y2="2431.4"/>
		<line class="st0" x1="3182.2" y1="2175.3" x2="3137.1" y2="2175.3"/>
		<line class="st0" x1="3182.2" y1="2095.3" x2="3137.1" y2="2095.3"/>
		<line class="st0" x1="3182.2" y1="1726" x2="3137.1" y2="1726"/>
		<line class="st0" x1="3182.2" y1="1642.7" x2="3137.1" y2="1642.7"/>
		<line class="st0" x1="3182.2" y1="1224.6" x2="3137.1" y2="1224.6"/>
		<line class="st0" x1="3137.1" y1="2175.3" x2="3137.1" y2="2095.3"/>
		<line class="st0" x1="3137" y1="2431.4" x2="3137" y2="2175.3"/>
		<line class="st0" x1="3137.1" y1="2036.2" x2="3137.1" y2="1726"/>
		<line class="st0" x1="3137.1" y1="1642.7" x2="3137.1" y2="1726"/>
		<line class="st0" x1="826.2" y1="2064.5" x2="826.2" y2="2167.7"/>
		<line class="st0" x1="826.2" y1="1610.5" x2="826.2" y2="1723.5"/>
		<line class="st0" x1="826.2" y1="1246.9" x2="826.2" y2="1610.5"/>
		<line class="st0" x1="826.2" y1="1143.3" x2="826.2" y2="1246.9"/>
		<line class="st0" x1="826.2" y1="700.6" x2="826.2" y2="818.3"/>
		<line class="st0" x1="826.4" y1="444.4" x2="826.4" y2="700.6"/>
		<line class="st0" x1="3137.1" y1="1224.6" x2="3137.1" y2="1642.7"/>
		<line class="st0" x1="3084.8" y1="441.6" x2="3137" y2="441.6"/>
		<line class="st0" x1="1200" y1="773.7" x2="1200" y2="818.3"/>
		<line class="st0" x1="826.2" y1="818.3" x2="1200" y2="818.3"/>
		<line class="st0" x1="826.2" y1="1143.3" x2="826.2" y2="818.3"/>
		<line class="st0" x1="1324" y1="773.7" x2="1324" y2="818.3"/>
		<line class="st0" x1="1595" y1="773.7" x2="1595" y2="818.3"/>
		<line class="st0" x1="1580.7" y1="878.1" x2="1580.7" y2="818.3"/>
		<line class="st0" x1="1307.8" y1="878.1" x2="1307.8" y2="818.3"/>
		<line class="st0" x1="1200" y1="818.3" x2="1307.8" y2="818.3"/>
		<line class="st0" x1="1324" y1="818.3" x2="1307.8" y2="818.3"/>
		<line class="st0" x1="1580.7" y1="818.3" x2="1324" y2="818.3"/>
		<line class="st0" x1="1595" y1="818.3" x2="1580.7" y2="818.3"/>
		<line class="st0" x1="1650.2" y1="773.7" x2="1650.2" y2="818.3"/>
		<line class="st0" x1="2059.5" y1="773.7" x2="2059.5" y2="818.3"/>
		<line class="st0" x1="2110.8" y1="773.7" x2="2110.8" y2="818.2"/>
		<line class="st0" x1="2320" y1="773.7" x2="2320" y2="818.2"/>
		<line class="st0" x1="2370.7" y1="773.7" x2="2370.7" y2="818.2"/>
		<line class="st0" x1="2656.6" y1="773.7" x2="2656.6" y2="818.2"/>
		<line class="st0" x1="2637.1" y1="878.1" x2="2637.1" y2="818.2"/>
		<line class="st0" x1="2383.1" y1="878.1" x2="2383.1" y2="818.2"/>
		<line class="st0" x1="2299.3" y1="878.1" x2="2299.3" y2="818.2"/>
		<line class="st0" x1="2003" y1="878.1" x2="2003" y2="818.3"/>
		<line class="st0" x1="1950.4" y1="878.1" x2="1950.4" y2="818.2"/>
		<line class="st0" x1="1661.2" y1="878.1" x2="1661.2" y2="818.3"/>
		<line class="st0" x1="1595" y1="818.3" x2="1650.2" y2="818.3"/>
		<line class="st0" x1="1661.2" y1="818.3" x2="1650.2" y2="818.3"/>
		<line class="st0" x1="1950.4" y1="818.2" x2="1661.2" y2="818.2"/>
		<line class="st0" x1="2003" y1="818.3" x2="1950.4" y2="818.3"/>
		<line class="st0" x1="2059.5" y1="818.3" x2="2003" y2="818.3"/>
		<line class="st0" x1="2110.8" y1="818.2" x2="2059.5" y2="818.2"/>
		<line class="st0" x1="2299.3" y1="818.2" x2="2320" y2="818.2"/>
		<line class="st0" x1="2110.8" y1="818.2" x2="2299.3" y2="818.2"/>
		<line class="st0" x1="2320" y1="818.2" x2="2370.7" y2="818.2"/>
		<line class="st0" x1="2383.1" y1="818.2" x2="2370.7" y2="818.2"/>
		<line class="st0" x1="2637.1" y1="818.2" x2="2383.1" y2="818.2"/>
		<line class="st0" x1="2656.6" y1="818.2" x2="2637.1" y2="818.2"/>
		<line class="st0" x1="2763" y1="773.7" x2="2763" y2="818.2"/>
		<line class="st0" x1="2656.6" y1="818.2" x2="2763" y2="818.2"/>
		<line class="st0" x1="2763" y1="818.2" x2="3137" y2="818.2"/>
		<line class="st0" x1="3137" y1="441.6" x2="3137" y2="818.2"/>
		<line class="st0" x1="3137.1" y1="1224.6" x2="3137" y2="818.2"/>
		<line class="st0" x1="3137" y1="2431.4" x2="3084.8" y2="2431.4"/>
		<line class="st0" x1="886.9" y1="444.4" x2="826.4" y2="444.4"/>
		<line class="st0" x1="886.9" y1="2411.5" x2="826.2" y2="2411.5"/>
		<line class="st0" x1="826.2" y1="2411.5" x2="826.2" y2="2167.7"/>
		<line class="st0" x1="826.2" y1="2431.8" x2="826.2" y2="2411.5"/>
		<line class="st0" x1="3137.1" y1="2036.2" x2="2734.8" y2="2036.2"/>
		<line class="st0" x1="2734.8" y1="2090.1" x2="2734.8" y2="2036.2"/>
		<line class="st0" x1="1236.8" y1="2036.2" x2="1236.8" y2="2090.1"/>
		<line class="st0" x1="826.2" y1="2064.5" x2="826.2" y2="2036.2"/>
		<line class="st0" x1="826.2" y1="1723.5" x2="826.2" y2="2036.2"/>
		<line class="st0" x1="1236.8" y1="2036.2" x2="826.2" y2="2036.2"/>
		<line class="st0" x1="1329.9" y1="2090.1" x2="1329.9" y2="2036.2"/>
		<line class="st0" x1="1603" y1="2090.1" x2="1603" y2="2036.2"/>
		<line class="st0" x1="1659" y1="2090.1" x2="1659" y2="2036.2"/>
		<line class="st0" x1="1867" y1="2090.1" x2="1867" y2="2036.2"/>
		<line class="st0" x1="1927" y1="2090.1" x2="1927" y2="2036.2"/>
		<line class="st0" x1="2325" y1="2090.1" x2="2325" y2="2036.2"/>
		<line class="st0" x1="2373" y1="2090.1" x2="2373" y2="2036.2"/>
		<line class="st0" x1="2657" y1="2090.1" x2="2657" y2="2036.2"/>
		<line class="st0" x1="1311" y1="1984.5" x2="1311" y2="2036.2"/>
		<line class="st0" x1="1603" y1="1984.5" x2="1603" y2="2036.1"/>
		<line class="st0" x1="1659" y1="2036.2" x2="1659" y2="1984.5"/>
		<line class="st0" x1="1961" y1="1984.5" x2="1961" y2="2036.1"/>
		<line class="st0" x1="2325" y1="1984.5" x2="2325" y2="2036.2"/>
		<line class="st0" x1="2373" y1="1984.5" x2="2373" y2="2036.2"/>
		<line class="st0" x1="2657" y1="1984.5" x2="2657" y2="2036.2"/>
		<line class="st0" x1="1236.8" y1="2036.2" x2="1311" y2="2036.2"/>
		<line class="st0" x1="1329.9" y1="2036.2" x2="1311" y2="2036.2"/>
		<line class="st0" x1="1603" y1="2036.1" x2="1329.9" y2="2036.2"/>
		<line class="st0" x1="1659" y1="2036.2" x2="1603" y2="2036.1"/>
		<line class="st0" x1="1867" y1="2036.2" x2="1659" y2="2036.2"/>
		<line class="st0" x1="1927" y1="2036.2" x2="1961" y2="2036.1"/>
		<line class="st0" x1="2325" y1="2036.2" x2="2373" y2="2036.2"/>
		<line class="st0" x1="1867" y1="2036.2" x2="1927" y2="2036.2"/>
		<line class="st0" x1="2373" y1="2036.2" x2="2657" y2="2036.2"/>
		<line class="st0" x1="2734.8" y1="2036.2" x2="2657" y2="2036.2"/>
		<line class="st0" x1="2035.4" y1="1984.5" x2="2035.4" y2="2036.1"/>
		<line class="st0" x1="1961" y1="2036.1" x2="2035.4" y2="2036.1"/>
		<line class="st0" x1="2325" y1="2036.2" x2="2035.4" y2="2036.2"/>
		<line class="st0" x1="3137.1" y1="2095.3" x2="3137" y2="2064.5"/>
		<line class="st0" x1="3137.1" y1="2036.2" x2="3137" y2="2064.5"/>
		<line class="st0" x1="826.2" y1="2064.5" x2="3137.1" y2="2064.5"/>
	</g>
	<g id="Doors">
		<line id="A212_1_" class="st4" x1="1329.9" y1="2090.1" x2="1353.6" y2="2113.7"/>
		<line id="A212_2_" class="st4" x1="1603" y1="2090.1" x2="1626.7" y2="2113.7"/>
		<line id="A211_2_" class="st5" x1="1659" y1="2090.1" x2="1682.7" y2="2113.7"/>
		<line id="A211_1_" class="st5" x1="1867" y1="2090.1" x2="1890.7" y2="2113.7"/>
		<line id="A210_1_" class="st5" x1="1927" y1="2090.1" x2="1950.7" y2="2113.7"/>
		<line id="A210_2_" class="st5" x1="2325" y1="2090.1" x2="2348.7" y2="2113.7"/>
		<line id="A209_1_" class="st5" x1="2373" y1="2090.1" x2="2396.7" y2="2113.7"/>
		<line id="A209_2_" class="st5" x1="2657" y1="2090.1" x2="2680.7" y2="2113.7"/>
		<line id="A220_1_" class="st5" x1="1307.8" y1="878.1" x2="1331.5" y2="901.7"/>
		<line id="A220_2_" class="st5" x1="1580.7" y1="878.1" x2="1604.3" y2="901.7"/>
		<line id="A219_1_" class="st5" x1="1661.2" y1="878.1" x2="1684.9" y2="901.7"/>
		<line id="A219_2_" class="st5" x1="1950.4" y1="878.1" x2="1974" y2="901.7"/>
		<line id="A218_1_" class="st5" x1="2003" y1="878.1" x2="2026.6" y2="901.7"/>
		<line id="A218_2_" class="st5" x1="2299.3" y1="878.1" x2="2322.9" y2="901.7"/>
		<line id="A217_1_" class="st5" x1="2383.1" y1="878.1" x2="2406.7" y2="901.7"/>
		<line id="A217_2_" class="st5" x1="2637.1" y1="878.1" x2="2660.7" y2="901.7"/>
		<line id="A224_1_" class="st5" x1="2656.6" y1="773.7" x2="2632.9" y2="750.1"/>
		<line id="A224_2_" class="st5" x1="2370.7" y1="773.7" x2="2347.1" y2="750.1"/>
		<line id="A223_1_" class="st5" x1="2320" y1="773.7" x2="2296.4" y2="750.1"/>
		<line id="A223_2_" class="st5" x1="2110.8" y1="773.7" x2="2087.2" y2="750.1"/>
		<line id="A222_1_" class="st5" x1="2059.5" y1="773.7" x2="2035.9" y2="750.1"/>
		<line id="A222_2_" class="st5" x1="1650.2" y1="773.7" x2="1626.5" y2="750.1"/>
		<line id="A221_1_" class="st5" x1="1595" y1="773.7" x2="1571.3" y2="750.1"/>
		<line id="A221_2_" class="st5" x1="1324" y1="773.7" x2="1300.4" y2="750.1"/>
		<line id="A213_1_" class="st5" x1="1311" y1="1984.5" x2="1334.7" y2="1960.8"/>
		<line id="A213_2_" class="st5" x1="1603" y1="1984.5" x2="1626.7" y2="1960.8"/>
		<line id="A214_1_" class="st5" x1="1659" y1="1984.5" x2="1682.7" y2="1960.8"/>
		<line id="A214_2_" class="st5" x1="1961" y1="1984.5" x2="1984.7" y2="1960.8"/>
		<line id="A215_1_" class="st5" x1="2035.4" y1="1984.5" x2="2059.1" y2="1960.8"/>
		<line id="A215_2_" class="st5" x1="2325" y1="1984.5" x2="2348.7" y2="1960.8"/>
		<line id="A216_1_" class="st5" x1="2373" y1="1984.5" x2="2396.7" y2="1960.8"/>
		<line id="A216_2_" class="st5" x1="2657" y1="1984.5" x2="2680.7" y2="1960.8"/>
		<line id="A201_1_" class="st5" x1="3182.2" y1="1224.6" x2="3205.8" y2="1200.9"/>
		<line id="A201_2_" class="st5" x1="3182.2" y1="1642.7" x2="3205.8" y2="1619"/>
		<line id="A202_1_" class="st5" x1="3182.2" y1="1726" x2="3205.8" y2="1702.3"/>
		<line id="A202_2_" class="st5" x1="3182.2" y1="2095.3" x2="3205.8" y2="2071.7"/>
		<line id="A203_1_" class="st5" x1="3182.2" y1="2175.3" x2="3205.8" y2="2151.7"/>
		<line id="A203_2_" class="st5" x1="3182.2" y1="2431.4" x2="3205.8" y2="2407.7"/>
		<line id="A208_2_" class="st5" x1="767" y1="444.4" x2="743.3" y2="420.8"/>
		<line id="A208_1_" class="st5" x1="767" y1="700.6" x2="743.3" y2="676.9"/>
		<line id="A207_2_" class="st5" x1="767" y1="818.3" x2="743.3" y2="794.7"/>
		<line id="A207_1_" class="st5" x1="767" y1="1143.3" x2="743.3" y2="1119.6"/>
		<line id="A206_1_" class="st5" x1="767" y1="1246.9" x2="743.3" y2="1223.2"/>
		<line id="A206_2_" class="st5" x1="767" y1="1610.5" x2="743.3" y2="1586.8"/>
		<line id="A205_1_" class="st5" x1="767" y1="1723.5" x2="743.3" y2="1699.8"/>
		<line id="A205_2_" class="st5" x1="767" y1="2064.5" x2="743.3" y2="2040.8"/>
		<line id="A204_1_" class="st5" x1="767" y1="2167.7" x2="743.3" y2="2144.1"/>
		<line id="A204_2_" class="st5" x1="767" y1="2431.8" x2="743.3" y2="2408.1"/>
	</g>
	<g id="Portals">
		<line id="Stair.1.floor1" class="st5" x1="886.9" y1="2411.5" x2="917.2" y2="2381.1"/>
		<line id="Stair.2.floor1" class="st5" x1="1236.8" y1="2090.1" x2="1262" y2="2115.2"/>
		<line id="Stair.3.floor1" class="st5" x1="2734.8" y1="2090.1" x2="2763.9" y2="2119.2"/>
		<line id="Stair.4.floor1" class="st5" x1="3084.8" y1="2431.4" x2="3055.8" y2="2460.3"/>
		<line id="Stair.5.floor1" class="st5" x1="3084.8" y1="441.6" x2="3049.4" y2="477"/>
		<line id="Stair.6.floor1" class="st5" x1="2763" y1="773.7" x2="2734.2" y2="744.9"/>
		<line id="Stair.7.floor1" class="st5" x1="1200" y1="773.7" x2="1175.1" y2="748.9"/>
		<line id="Stair.8.floor1" class="st5" x1="886.9" y1="444.4" x2="913.1" y2="418.1"/>
	</g>
	<g id="RoomsName">
		<text transform="matrix(1 0 0 1 345.1107 633.4083)" class="st6 st7">A208</text>
		<text transform="matrix(1 0 0 1 345.1107 999.0658)" class="st6 st7">A207</text>
		<text transform="matrix(1 0 0 1 345.1106 1440.7556)" class="st6 st7">A206</text>
		<text transform="matrix(1 0 0 1 345.1105 1943.9878)" class="st6 st7">A205</text>
		<text transform="matrix(1 0 0 1 345.1106 2318.4971)" class="st6 st7">A204</text>
		<text transform="matrix(1 0 0 1 3387.8081 2318.4973)" class="st6 st7">A203</text>
		<text transform="matrix(1 0 0 1 3387.8081 1943.988)" class="st6 st7">A202</text>
		<text transform="matrix(1 0 0 1 3387.8081 1482.5117)" class="st6 st7">A201</text>
		<text transform="matrix(1 0 0 1 3387.8081 834.6413)" class="st6 st7">1</text>
		<text transform="matrix(1 0 0 1 1329.9172 633.4085)" class="st6 st7">A221</text>
		<text transform="matrix(1 0 0 1 1737.8357 633.4085)" class="st6 st7">A222</text>
		<text transform="matrix(1 0 0 1 2120.2808 633.4081)" class="st6 st7">A223</text>
		<text transform="matrix(1 0 0 1 2397.7036 633.4085)" class="st6 st7">A224</text>
		<text transform="matrix(1 0 0 1 1329.9172 1912.0725)" class="st6 st7">A213</text>
		<text transform="matrix(1 0 0 1 1329.9172 1044.5994)" class="st6 st7">A220</text>
		<text transform="matrix(1 0 0 1 1683.8464 1044.5996)" class="st6 st7">A219</text>
		<text transform="matrix(1 0 0 1 2037.7758 1044.5996)" class="st6 st7">A218</text>
		<text transform="matrix(1 0 0 1 2405.1748 1049.2185)" class="st6 st7">A217</text>
		<text transform="matrix(1 0 0 1 1683.8464 1912.0728)" class="st6 st7">A214</text>
		<text transform="matrix(1 0 0 1 2037.7758 1912.073)" class="st6 st7">A215</text>
		<text transform="matrix(1 0 0 1 2397.7036 1912.0732)" class="st6 st7">A216</text>
		<text transform="matrix(1 0 0 1 1329.9172 2318.4976)" class="st6 st7">A212</text>
		<text transform="matrix(1 0 0 1 1652.8464 2318.4978)" class="st6 st7">A211</text>
		<text transform="matrix(1 0 0 1 1990.3516 2318.498)" class="st6 st7">A210</text>
		<text transform="matrix(1 0 0 1 2397.7036 2318.4971)" class="st6 st7">A209</text>
		<text transform="matrix(1 0 0 1 974.4669 1224.5632)" class="st6 st7">2</text>
	</g>
</g>
</svg>
