<?xml version="1.0" encoding="utf-8"?>
<!-- Generator: Adobe Illustrator 21.0.2, SVG Export Plug-In . SVG Version: 6.00 Build 0)  -->
<svg version="1.1" id="Livello_1" xmlns="http://www.w3.org/2000/svg" xmlns:xlink="http://www.w3.org/1999/xlink" x="0px" y="0px"
	 viewBox="0 0 1200 800" style="enable-background:new 0 0 1200 800;" xml:space="preserve">
<style type="text/css">
	.st0{fill:#D7D7DC;}
	.st1{fill:#A4A4A4;}
	.st2{fill:#BBBBBB;}
</style>
<g id="Vuoto">
	<polyline id="Pavimento" class="st0" points="12.7,365.7 12.7,787.4 356.2,787.4 437.4,786.1 542.3,786.1 627.8,787.4 
		1187.5,786.3 1187.5,532.7 1187.5,430.6 1187.5,405.6 1187.3,349.7 1187.3,11.2 548.1,11.2 511.5,11.2 464.4,11.2 437.4,11.2 
		13.9,9.7 	"/>
	<rect x="249.7" y="192.9" class="st1" width="123.2" height="83.4"/>
	<rect x="249.7" y="450.9" class="st1" width="123.1" height="149.7"/>
	<rect x="538.2" y="509.9" class="st1" width="94.6" height="90.7"/>
	<rect x="633.9" y="509.9" class="st1" width="190.8" height="90.7"/>
	<rect x="825.9" y="451.5" class="st1" width="128.5" height="149"/>
	<rect x="825.9" y="193.1" class="st1" width="128.5" height="83.2"/>
	<rect x="768.3" y="193.1" class="st1" width="56.7" height="83"/>
	<rect x="373.8" y="192.9" class="st1" width="69.7" height="83.4"/>
</g>
<g id="Base">
	<path class="st2" d="M1188,11.5v337.9l-0.5,12v50.8v35.4v338.7H628.6l-78.9-0.2H429.6l-72.6,0.2H13.4V365.4l0.5-354.3 M0,0v353.9
		V800h365.8H389h35.2h122.3h58.3h14H1200V555.1v-79.7v-66.7v-45.6V0l0,0H535.5H0z"/>
	<path class="st2" d="M1188,11.5v337.9l-0.5,12v50.8v35.4v338.7H628.6l-78.9-0.2H429.6l-72.6,0.2H13.4V365.4l0.5-354.3 M0,0v353.9
		V800h365.8H389h35.2h122.3h58.3h14H1200V555.1v-79.7v-66.7v-45.6V0l0,0H535.5H0z"/>
	<path class="st2" d="M377.6,11.8v61.4l-0.1,2.2v9.2V91v61.5h-60.4h-8.5h-13h-7.9h-37.2V76l0.1-64.3 M249.1,9.7V74v81h39.6h2.5h3.8
		h13.2h6.3h1.5h62.8v-44.5V96V83.9v-8.3V9.7l0,0H307H249.1z"/>
	<path class="st2" d="M953.8,11.8v61.4l-0.1,2.2v9.2V91v61.5h-60.4h-8.5h-13h-7.9h-37.2V76l0.1-64.3 M825.3,9.7V74v81h39.6h2.5h3.8
		h13.2h6.3h1.5H955v-44.5V96V83.9v-8.3V9.7l0,0h-71.9H825.3z"/>
	<path class="st2" d="M377.8,643.6V705l-0.1,2.2v9.2v6.4v61.5h-60.4h-8.5h-13h-7.9h-37.2v-76.4l0.1-64.3 M249.3,641.5v64.3v81h39.6
		h2.5h3.8h13.2h6.3h1.5H379v-44.5v-14.5v-12.1v-8.3v-65.9l0,0h-71.9H249.3z"/>
	<path class="st2" d="M953.7,643.6V705l-0.1,2.2v9.2v6.4v61.5h-60.4h-8.5h-13h-7.9h-37.2v-76.4l0.1-64.3 M825.3,641.5v64.3v81h39.6
		h2.5h3.8h13.2h6.3h1.5H955v-44.5v-14.5v-12.1v-8.3v-65.9l0,0h-71.9H825.3z"/>
</g>
<g id="Rooms">
	<g id="_x31_">
		<rect x="989.4" y="528.1" class="st1" width="198.3" height="77.4"/>
	</g>
	<g id="_x32_">
		<rect x="373.8" y="509.9" class="st1" width="163.4" height="90.7"/>
	</g>
	<g id="AulaStudio">
		<rect x="444.3" y="192.9" class="st1" width="322.8" height="83.4"/>
	</g>
	<g id="A108">
		<rect x="825.9" y="277.4" class="st1" width="128.5" height="173"/>
	</g>
	<g id="A107">
		<rect x="249.7" y="277.4" class="st1" width="123.2" height="172.5"/>
	</g>
	<g id="A106">
		<rect x="12.8" y="9.6" class="st1" width="206.6" height="194.6"/>
	</g>
	<g id="A105">
		<rect x="12.8" y="205.9" class="st1" width="206.6" height="192.9"/>
	</g>
	<g id="A104">
		<rect x="12.7" y="400.2" class="st1" width="206.6" height="190.6"/>
	</g>
	<g id="A103">
		<rect x="12.8" y="592.4" class="st1" width="206.6" height="194.6"/>
	</g>
	<g id="A102">
		<rect x="989.4" y="334.5" class="st1" width="198.2" height="192.2"/>
	</g>
	<g id="A101">
		<rect x="989.4" y="74.1" class="st1" width="198.2" height="259.4"/>
	</g>
</g>
</svg>
