<?xml version="1.0" encoding="utf-8"?>
<!-- Generator: Adobe Illustrator 21.0.2, SVG Export Plug-In . SVG Version: 6.00 Build 0)  -->
<svg version="1.1" id="Livello_1" xmlns="http://www.w3.org/2000/svg" xmlns:xlink="http://www.w3.org/1999/xlink" x="0px" y="0px"
	 viewBox="0 0 1995 1330" style="enable-background:new 0 0 1995 1330;" xml:space="preserve">
<style type="text/css">
	.st0{fill:#D7D7DC;}
	.st1{fill:#BBBBBB;}
	.st2{fill:#A4A4A4;}
</style>
<path d="M1975.1,11.6v342l-0.8,12.1v51.5v35.9v342.8H1045l-131.2-0.2H714.2l-120.7,0.2H22.3v-426l0.8-358.6 M0,0v358.2v451.6h608.1
	h38.6h58.5h203.3h96.9h23.3H1995V561.9v-80.7v-67.5v-46.2V0l0,0H890.3H0z"/>
<polyline class="st0" points="15.3,370.3 15.3,795.2 195.5,795.2 195.5,1163.7 529.8,1163.7 529.8,795.2 1508.4,795.9 
	1508.4,1163.6 1840.3,1163.7 1842.7,795.9 1974.2,794 1974.2,538.5 1974.2,435.7 1974.2,410.5 1973.9,354.2 1973.9,13.2 908,13.2 
	847,13.2 768.5,13.2 723.4,13.2 17.3,11.7 "/>
<path class="st1" d="M1975.1,19.1v561.7l-0.8,19.9v84.5v58.9l-0.1,51h-131.5v368.5h-334.3V795.2H916.8h-387v368.5H195.5V795.2H22.1
	l0.2-187.7l0.8-589 M0,0v588.3v221.5l179.3-1l1,366.8l362.8,1l3-367.8l950,2l-2,363.8l360.8,2l2-367.7H1995V679.5v-75.8V0l0,0H890.3
	H0z"/>
<path d="M398.5,263"/>
<path class="st2" d="M624.7,207.6v73.8l-0.1,2.6v11.1v7.7v73.9h-72.1h-10.1h-15.5h-9.5h-44.3v-91.8l0.1-77.3 M471.4,205.1v77.3v97.4
	h47.2h3h4.6h15.7h7.6h1.8h75v-53.5v-17.4v-14.5v-10v-79.3l0,0h-85.8L471.4,205.1L471.4,205.1z"/>
<path class="st2" d="M1916.1,207.6v73.8l-0.1,2.6v11.1v7.7v73.9h-72.1h-10.1h-15.5h-9.4h-44.3v-91.8l0.1-77.3 M1762.9,205.1v77.3
	v97.4h47.2h3h4.6h15.7h7.6h1.8h75v-53.5v-17.4v-14.5v-10v-79.3l0,0h-85.9L1762.9,205.1L1762.9,205.1z"/>
<rect x="626.3" y="278.8" class="st2" width="1136.6" height="100.2"/>
<rect x="1508.4" y="795.9" class="st2" width="334.3" height="367.8"/>
<rect x="471.4" y="18.6" class="st2" width="154.8" height="186.5"/>
<rect x="1762.9" y="18.6" class="st2" width="154.8" height="186.5"/>
<rect x="23.9" y="292.5" class="st2" width="167.1" height="368.5"/>
<rect x="571" y="491" class="st2" width="892.4" height="304.9"/>
</svg>
