<svg xmlns="http://www.w3.org/2000/svg" width="2880" height="1880"><path d="M-107,-216L479,-234L611,-251Z" fill="#b3600d" stroke="#b3600d" stroke-width="1.51"/><path d="M845,2042L269,2131L1480,2096Z" fill="#9e6776" stroke="#9e6776" stroke-width="1.51"/><path d="M1090,-263L1751,-201L1986,-233Z" fill="#c2937a" stroke="#c2937a" stroke-width="1.51"/><path d="M1090,-263L1986,-233L2333,-245Z" fill="#ba8a77" stroke="#ba8a77" stroke-width="1.51"/><path d="M1889,2098L1480,2096L2450,2149Z" fill="#7f669b" stroke="#7f669b" stroke-width="1.51"/><path d="M1480,2096L269,2131L2450,2149Z" fill="#9679a1" stroke="#9679a1" stroke-width="1.51"/><path d="M1090,-263L2333,-245L2720,-242Z" fill="#ad7b70" stroke="#ad7b70" stroke-width="1.51"/><path d="M2573,2139L2450,2149L3006,2137Z" fill="#502d77" stroke="#502d77" stroke-width="1.51"/><path d="M3087,1749L3083,1844L3159,1461Z" fill="#5e4185" stroke="#5e4185" stroke-width="1.51"/><path d="M3083,1844L3086,2032L3159,1461Z" fill="#56337f" stroke="#56337f" stroke-width="1.51"/><path d="M3030,1691L3087,1749L3159,1461Z" fill="#64478b" stroke="#64478b" stroke-width="1.51"/><path d="M2891,785L3010,1000L3201,909Z" fill="#9e81ac" stroke="#9e81ac" stroke-width="1.51"/><path d="M3010,1000L3112,1156L3201,909Z" fill="#947aa8" stroke="#947aa8" stroke-width="1.51"/><path d="M3112,1156L3143,1268L3201,909Z" fill="#8c73a2" stroke="#8c73a2" stroke-width="1.51"/><path d="M3143,1268L3159,1461L3201,909Z" fill="#846b9e" stroke="#846b9e" stroke-width="1.51"/><path d="M2720,-242L3014,-194L3202,-213Z" fill="#762f46" stroke="#762f46" stroke-width="1.51"/><path d="M3014,-194L3108,30L3202,-213Z" fill="#762d3e" stroke="#762d3e" stroke-width="1.51"/><path d="M3112,209L3144,359L3202,-213Z" fill="#8a3c43" stroke="#8a3c43" stroke-width="1.51"/><path d="M3108,30L3112,209L3202,-213Z" fill="#813440" stroke="#813440" stroke-width="1.51"/><path d="M3121,515L2902,560L3204,732Z" fill="#a16e82" stroke="#a16e82" stroke-width="1.51"/><path d="M2902,560L2891,785L3204,732Z" fill="#a57a97" stroke="#a57a97" stroke-width="1.51"/><path d="M2891,785L3201,909L3204,732Z" fill="#9c799b" stroke="#9c799b" stroke-width="1.51"/><path d="M3144,359L3121,515L3204,732Z" fill="#9c6471" stroke="#9c6471" stroke-width="1.51"/><path d="M3202,-213L3144,359L3204,732Z" fill="#934b4f" stroke="#934b4f" stroke-width="1.51"/><path d="M3108,30L2967,129L3112,209Z" fill="#91414a" stroke="#91414a" stroke-width="1.51"/><path d="M2937,372L3121,515L3144,359Z" fill="#a15f67" stroke="#a15f67" stroke-width="1.51"/><path d="M2960,1464L3030,1691L3159,1461Z" fill="#705496" stroke="#705496" stroke-width="1.51"/><path d="M3143,1268L2963,1337L3159,1461Z" fill="#7e649e" stroke="#7e649e" stroke-width="1.51"/><path d="M2963,1337L2960,1464L3159,1461Z" fill="#7d61a0" stroke="#7d61a0" stroke-width="1.51"/><path d="M3014,-194L2898,-77L3108,30Z" fill="#833548" stroke="#833548" stroke-width="1.51"/><path d="M3112,1156L2957,1167L3143,1268Z" fill="#8b73a8" stroke="#8b73a8" stroke-width="1.51"/><path d="M2957,1167L2963,1337L3143,1268Z" fill="#8a70a9" stroke="#8a70a9" stroke-width="1.51"/><path d="M3112,209L2937,372L3144,359Z" fill="#9d545b" stroke="#9d545b" stroke-width="1.51"/><path d="M2751,2063L2573,2139L3006,2137Z" fill="#4c2576" stroke="#4c2576" stroke-width="1.51"/><path d="M3083,1844L2910,1842L3086,2032Z" fill="#4e237d" stroke="#4e237d" stroke-width="1.51"/><path d="M3010,1000L2957,1167L3112,1156Z" fill="#947aae" stroke="#947aae" stroke-width="1.51"/><path d="M2937,372L2902,560L3121,515Z" fill="#a86a78" stroke="#a86a78" stroke-width="1.51"/><path d="M2967,129L2937,372L3112,209Z" fill="#9e4f57" stroke="#9e4f57" stroke-width="1.51"/><path d="M2898,-77L2967,129L3108,30Z" fill="#8e3d4c" stroke="#8e3d4c" stroke-width="1.51"/><path d="M1314,2063L845,2042L1480,2096Z" fill="#9d789a" stroke="#9d789a" stroke-width="1.51"/><path d="M2814,1904L3006,2137L3086,2032Z" fill="#471b74" stroke="#471b74" stroke-width="1.51"/><path d="M2910,1842L2814,1904L3086,2032Z" fill="#512583" stroke="#512583" stroke-width="1.51"/><path d="M2910,1842L3083,1844L3087,1749Z" fill="#573284" stroke="#573284" stroke-width="1.51"/><path d="M3030,1691L2910,1842L3087,1749Z" fill="#5d3b89" stroke="#5d3b89" stroke-width="1.51"/><path d="M2814,1904L2751,2063L3006,2137Z" fill="#4d227c" stroke="#4d227c" stroke-width="1.51"/><path d="M2891,785L2836,939L3010,1000Z" fill="#a688b9" stroke="#a688b9" stroke-width="1.51"/><path d="M2710,1706L2910,1842L3030,1691Z" fill="#654496" stroke="#654496" stroke-width="1.51"/><path d="M2736,1574L2710,1706L3030,1691Z" fill="#71569f" stroke="#71569f" stroke-width="1.51"/><path d="M2960,1464L2736,1574L3030,1691Z" fill="#7457a0" stroke="#7457a0" stroke-width="1.51"/><path d="M2785,136L2937,372L2967,129Z" fill="#a4525d" stroke="#a4525d" stroke-width="1.51"/><path d="M2836,939L2957,1167L3010,1000Z" fill="#9e84b8" stroke="#9e84b8" stroke-width="1.51"/><path d="M2720,-242L2898,-77L3014,-194Z" fill="#823750" stroke="#823750" stroke-width="1.51"/><path d="M2791,-61L2785,136L2898,-77Z" fill="#974856" stroke="#974856" stroke-width="1.51"/><path d="M2778,420L2902,560L2937,372Z" fill="#b06e7d" stroke="#b06e7d" stroke-width="1.51"/><path d="M2785,136L2778,420L2937,372Z" fill="#ad636c" stroke="#ad636c" stroke-width="1.51"/><path d="M2836,939L2751,1172L2957,1167Z" fill="#a087be" stroke="#a087be" stroke-width="1.51"/><path d="M2957,1167L2751,1172L2963,1337Z" fill="#947ab7" stroke="#947ab7" stroke-width="1.51"/><path d="M2751,1172L2702,1297L2963,1337Z" fill="#957fb9" stroke="#957fb9" stroke-width="1.51"/><path d="M2702,1297L2960,1464L2963,1337Z" fill="#8a6fb1" stroke="#8a6fb1" stroke-width="1.51"/><path d="M2898,-77L2785,136L2967,129Z" fill="#984657" stroke="#984657" stroke-width="1.51"/><path d="M2702,1297L2736,1574L2960,1464Z" fill="#8870b0" stroke="#8870b0" stroke-width="1.51"/><path d="M2760,558L2891,785L2902,560Z" fill="#af7f99" stroke="#af7f99" stroke-width="1.51"/><path d="M2760,558L2720,767L2891,785Z" fill="#b18ba7" stroke="#b18ba7" stroke-width="1.51"/><path d="M2720,-242L2791,-61L2898,-77Z" fill="#8b4253" stroke="#8b4253" stroke-width="1.51"/><path d="M2778,420L2760,558L2902,560Z" fill="#b37a89" stroke="#b37a89" stroke-width="1.51"/><path d="M2710,1706L2814,1904L2910,1842Z" fill="#644194" stroke="#644194" stroke-width="1.51"/><path d="M2720,767L2836,939L2891,785Z" fill="#ae8eb5" stroke="#ae8eb5" stroke-width="1.51"/><path d="M2589,209L2778,420L2785,136Z" fill="#b16a6a" stroke="#b16a6a" stroke-width="1.51"/><path d="M2710,1706L2619,1914L2814,1904Z" fill="#674797" stroke="#674797" stroke-width="1.51"/><path d="M2535,1010L2751,1172L2836,939Z" fill="#ab99c6" stroke="#ab99c6" stroke-width="1.51"/><path d="M2720,767L2535,1010L2836,939Z" fill="#b39ec5" stroke="#b39ec5" stroke-width="1.51"/><path d="M2702,1297L2545,1363L2736,1574Z" fill="#9382b9" stroke="#9382b9" stroke-width="1.51"/><path d="M2599,685L2720,767L2760,558Z" fill="#b793a6" stroke="#b793a6" stroke-width="1.51"/><path d="M2556,0L2785,136L2791,-61Z" fill="#a0565c" stroke="#a0565c" stroke-width="1.51"/><path d="M2720,-242L2623,-151L2791,-61Z" fill="#8e4b57" stroke="#8e4b57" stroke-width="1.51"/><path d="M2619,1914L2751,2063L2814,1904Z" fill="#5c368c" stroke="#5c368c" stroke-width="1.51"/><path d="M2545,1363L2520,1523L2736,1574Z" fill="#8f81b7" stroke="#8f81b7" stroke-width="1.51"/><path d="M2589,209L2574,439L2778,420Z" fill="#ba7c7a" stroke="#ba7c7a" stroke-width="1.51"/><path d="M2634,508L2760,558L2778,420Z" fill="#b9828a" stroke="#b9828a" stroke-width="1.51"/><path d="M2556,0L2589,209L2785,136Z" fill="#ac6562" stroke="#ac6562" stroke-width="1.51"/><path d="M2623,-151L2556,0L2791,-61Z" fill="#9a555b" stroke="#9a555b" stroke-width="1.51"/><path d="M2574,439L2634,508L2778,420Z" fill="#bc8686" stroke="#bc8686" stroke-width="1.51"/><path d="M2535,1010L2522,1190L2751,1172Z" fill="#aba0c9" stroke="#aba0c9" stroke-width="1.51"/><path d="M2634,508L2599,685L2760,558Z" fill="#bb8f9a" stroke="#bb8f9a" stroke-width="1.51"/><path d="M2580,1654L2710,1706L2736,1574Z" fill="#7b67a7" stroke="#7b67a7" stroke-width="1.51"/><path d="M2619,1914L2573,2139L2751,2063Z" fill="#5a3886" stroke="#5a3886" stroke-width="1.51"/><path d="M2522,1190L2702,1297L2751,1172Z" fill="#a294c3" stroke="#a294c3" stroke-width="1.51"/><path d="M2446,953L2535,1010L2599,685Z" fill="#bdb0ca" stroke="#bdb0ca" stroke-width="1.51"/><path d="M2599,685L2535,1010L2720,767Z" fill="#b9a3be" stroke="#b9a3be" stroke-width="1.51"/><path d="M2333,-245L2623,-151L2720,-242Z" fill="#91575b" stroke="#91575b" stroke-width="1.51"/><path d="M2520,1523L2580,1654L2736,1574Z" fill="#8575af" stroke="#8575af" stroke-width="1.51"/><path d="M2580,1654L2619,1914L2710,1706Z" fill="#735ca1" stroke="#735ca1" stroke-width="1.51"/><path d="M2522,1190L2545,1363L2702,1297Z" fill="#a095c3" stroke="#a095c3" stroke-width="1.51"/><path d="M2392,360L2574,439L2589,209Z" fill="#c1897c" stroke="#c1897c" stroke-width="1.51"/><path d="M2353,696L2446,953L2599,685Z" fill="#c3b0c0" stroke="#c3b0c0" stroke-width="1.51"/><path d="M2450,2149L2573,2139L2619,1914Z" fill="#5e4087" stroke="#5e4087" stroke-width="1.51"/><path d="M2335,1887L2450,2149L2619,1914Z" fill="#6a4d96" stroke="#6a4d96" stroke-width="1.51"/><path d="M2580,1654L2396,1736L2619,1914Z" fill="#7865a5" stroke="#7865a5" stroke-width="1.51"/><path d="M2338,580L2599,685L2634,508Z" fill="#c39fa2" stroke="#c39fa2" stroke-width="1.51"/><path d="M2574,439L2338,580L2634,508Z" fill="#c49995" stroke="#c49995" stroke-width="1.51"/><path d="M2396,1736L2335,1887L2619,1914Z" fill="#775fa4" stroke="#775fa4" stroke-width="1.51"/><path d="M2342,-57L2556,0L2623,-151Z" fill="#a36461" stroke="#a36461" stroke-width="1.51"/><path d="M2333,-245L2342,-57L2623,-151Z" fill="#9f6662" stroke="#9f6662" stroke-width="1.51"/><path d="M1986,-233L2246,-216L2333,-245Z" fill="#a7736b" stroke="#a7736b" stroke-width="1.51"/><path d="M2556,0L2366,240L2589,209Z" fill="#b87769" stroke="#b87769" stroke-width="1.51"/><path d="M2366,240L2392,360L2589,209Z" fill="#c38777" stroke="#c38777" stroke-width="1.51"/><path d="M2338,580L2353,696L2599,685Z" fill="#c8acb1" stroke="#c8acb1" stroke-width="1.51"/><path d="M2452,1193L2522,1190L2535,1010Z" fill="#b1aace" stroke="#b1aace" stroke-width="1.51"/><path d="M2522,1190L2452,1193L2545,1363Z" fill="#a8a1c9" stroke="#a8a1c9" stroke-width="1.51"/><path d="M2342,-57L2366,240L2556,0Z" fill="#b6756a" stroke="#b6756a" stroke-width="1.51"/><path d="M2392,360L2338,580L2574,439Z" fill="#ca9c91" stroke="#ca9c91" stroke-width="1.51"/><path d="M2520,1523L2398,1538L2580,1654Z" fill="#8c81b5" stroke="#8c81b5" stroke-width="1.51"/><path d="M2398,1538L2396,1736L2580,1654Z" fill="#897cb3" stroke="#897cb3" stroke-width="1.51"/><path d="M2398,1538L2520,1523L2545,1363Z" fill="#978dbe" stroke="#978dbe" stroke-width="1.51"/><path d="M2452,1193L2344,1294L2545,1363Z" fill="#a9a2ca" stroke="#a9a2ca" stroke-width="1.51"/><path d="M2446,953L2452,1193L2535,1010Z" fill="#b7b0d1" stroke="#b7b0d1" stroke-width="1.51"/><path d="M2344,1294L2398,1538L2545,1363Z" fill="#a299c6" stroke="#a299c6" stroke-width="1.51"/><path d="M2197,2009L1889,2098L2450,2149Z" fill="#765a97" stroke="#765a97" stroke-width="1.51"/><path d="M2036,2016L1889,2098L2197,2009Z" fill="#8166a1" stroke="#8166a1" stroke-width="1.51"/><path d="M2342,-57L2269,210L2366,240Z" fill="#c28371" stroke="#c28371" stroke-width="1.51"/><path d="M2344,1294L2223,1347L2398,1538Z" fill="#aaa2cb" stroke="#aaa2cb" stroke-width="1.51"/><path d="M2353,696L2180,888L2446,953Z" fill="#cbbed0" stroke="#cbbed0" stroke-width="1.51"/><path d="M2335,1887L2197,2009L2450,2149Z" fill="#715599" stroke="#715599" stroke-width="1.51"/><path d="M2446,953L2231,1109L2452,1193Z" fill="#bcb6d5" stroke="#bcb6d5" stroke-width="1.51"/><path d="M2231,1109L2344,1294L2452,1193Z" fill="#b7b3d4" stroke="#b7b3d4" stroke-width="1.51"/><path d="M2180,888L2231,1109L2446,953Z" fill="#c9c4dd" stroke="#c9c4dd" stroke-width="1.51"/><path d="M2212,325L2164,558L2338,580Z" fill="#d8ae9f" stroke="#d8ae9f" stroke-width="1.51"/><path d="M2132,36L2269,210L2342,-57Z" fill="#c28472" stroke="#c28472" stroke-width="1.51"/><path d="M2333,-245L2246,-216L2342,-57Z" fill="#a66e68" stroke="#a66e68" stroke-width="1.51"/><path d="M2366,240L2212,325L2392,360Z" fill="#ce9582" stroke="#ce9582" stroke-width="1.51"/><path d="M2212,325L2338,580L2392,360Z" fill="#d2a292" stroke="#d2a292" stroke-width="1.51"/><path d="M2239,1831L2335,1887L2396,1736Z" fill="#836eac" stroke="#836eac" stroke-width="1.51"/><path d="M2143,1652L2239,1831L2396,1736Z" fill="#8d7eb5" stroke="#8d7eb5" stroke-width="1.51"/><path d="M2143,1652L2396,1736L2398,1538Z" fill="#9287ba" stroke="#9287ba" stroke-width="1.51"/><path d="M2143,1570L2143,1652L2398,1538Z" fill="#9e94c2" stroke="#9e94c2" stroke-width="1.51"/><path d="M2223,1347L2143,1570L2398,1538Z" fill="#a69dc9" stroke="#a69dc9" stroke-width="1.51"/><path d="M2169,687L2180,888L2353,696Z" fill="#d4c2c9" stroke="#d4c2c9" stroke-width="1.51"/><path d="M2269,210L2212,325L2366,240Z" fill="#ce937d" stroke="#ce937d" stroke-width="1.51"/><path d="M2231,1109L2223,1347L2344,1294Z" fill="#b9b4d6" stroke="#b9b4d6" stroke-width="1.51"/><path d="M2338,580L2169,687L2353,696Z" fill="#d2b8b8" stroke="#d2b8b8" stroke-width="1.51"/><path d="M2164,558L2169,687L2338,580Z" fill="#d7b9b4" stroke="#d7b9b4" stroke-width="1.51"/><path d="M2246,-216L2132,36L2342,-57Z" fill="#b5796d" stroke="#b5796d" stroke-width="1.51"/><path d="M2239,1831L2197,2009L2335,1887Z" fill="#8064a9" stroke="#8064a9" stroke-width="1.51"/><path d="M1090,-263L1467,-157L1751,-201Z" fill="#cc9b7c" stroke="#cc9b7c" stroke-width="1.51"/><path d="M1612,2066L1480,2096L1889,2098Z" fill="#8f76a6" stroke="#8f76a6" stroke-width="1.51"/><path d="M2069,337L2164,558L2212,325Z" fill="#ddae98" stroke="#ddae98" stroke-width="1.51"/><path d="M2064,1471L2143,1570L2223,1347Z" fill="#b0a8d0" stroke="#b0a8d0" stroke-width="1.51"/><path d="M2180,888L2030,942L2231,1109Z" fill="#d3cfe4" stroke="#d3cfe4" stroke-width="1.51"/><path d="M2018,1371L2223,1347L2231,1109Z" fill="#bebada" stroke="#bebada" stroke-width="1.51"/><path d="M2069,1906L2197,2009L2239,1831Z" fill="#856aad" stroke="#856aad" stroke-width="1.51"/><path d="M1986,-233L2132,36L2246,-216Z" fill="#b67e70" stroke="#b67e70" stroke-width="1.51"/><path d="M2132,36L2010,108L2269,210Z" fill="#ce9178" stroke="#ce9178" stroke-width="1.51"/><path d="M2069,337L2212,325L2269,210Z" fill="#d69f86" stroke="#d69f86" stroke-width="1.51"/><path d="M2010,108L2069,337L2269,210Z" fill="#d79b7f" stroke="#d79b7f" stroke-width="1.51"/><path d="M1945,1069L2018,1371L2231,1109Z" fill="#cac8e2" stroke="#cac8e2" stroke-width="1.51"/><path d="M2143,1652L2023,1704L2239,1831Z" fill="#9788bc" stroke="#9788bc" stroke-width="1.51"/><path d="M2023,1704L2069,1906L2239,1831Z" fill="#907db7" stroke="#907db7" stroke-width="1.51"/><path d="M-107,-216L273,-209L479,-234Z" fill="#ae5a0b" stroke="#ae5a0b" stroke-width="1.51"/><path d="M2030,942L1945,1069L2231,1109Z" fill="#d3d1e5" stroke="#d3d1e5" stroke-width="1.51"/><path d="M2018,1371L2064,1471L2223,1347Z" fill="#b8b3d6" stroke="#b8b3d6" stroke-width="1.51"/><path d="M2169,687L1970,715L2180,888Z" fill="#dccccf" stroke="#dccccf" stroke-width="1.51"/><path d="M1008,2028L845,2042L1314,2063Z" fill="#a1758f" stroke="#a1758f" stroke-width="1.51"/><path d="M1970,715L2030,942L2180,888Z" fill="#dcd3dc" stroke="#dcd3dc" stroke-width="1.51"/><path d="M2069,1906L2036,2016L2197,2009Z" fill="#8368a8" stroke="#8368a8" stroke-width="1.51"/><path d="M1887,-45L1970,52L1986,-233Z" fill="#c68d76" stroke="#c68d76" stroke-width="1.51"/><path d="M1986,-233L1970,52L2132,36Z" fill="#c58975" stroke="#c58975" stroke-width="1.51"/><path d="M2069,337L2001,618L2164,558Z" fill="#e2bba9" stroke="#e2bba9" stroke-width="1.51"/><path d="M2164,558L2001,618L2169,687Z" fill="#dec2bb" stroke="#dec2bb" stroke-width="1.51"/><path d="M2001,618L1970,715L2169,687Z" fill="#e0cbc5" stroke="#e0cbc5" stroke-width="1.51"/><path d="M2023,1704L2143,1652L2143,1570Z" fill="#a097c4" stroke="#a097c4" stroke-width="1.51"/><path d="M2064,1471L2023,1704L2143,1570Z" fill="#a79fc9" stroke="#a79fc9" stroke-width="1.51"/><path d="M1970,52L2010,108L2132,36Z" fill="#ce9279" stroke="#ce9279" stroke-width="1.51"/><path d="M1820,322L1795,562L2001,618Z" fill="#edc9af" stroke="#edc9af" stroke-width="1.51"/><path d="M1945,1069L1794,1179L2018,1371Z" fill="#d1d0e6" stroke="#d1d0e6" stroke-width="1.51"/><path d="M1794,1179L1802,1318L2018,1371Z" fill="#cdcbe4" stroke="#cdcbe4" stroke-width="1.51"/><path d="M1798,1655L2023,1704L2064,1471Z" fill="#aaa3cb" stroke="#aaa3cb" stroke-width="1.51"/><path d="M1793,1467L1798,1655L2064,1471Z" fill="#b6b2d4" stroke="#b6b2d4" stroke-width="1.51"/><path d="M1859,1888L2036,2016L2069,1906Z" fill="#8d72b2" stroke="#8d72b2" stroke-width="1.51"/><path d="M2023,1704L1859,1888L2069,1906Z" fill="#9682ba" stroke="#9682ba" stroke-width="1.51"/><path d="M2010,108L1849,173L2069,337Z" fill="#dea381" stroke="#dea381" stroke-width="1.51"/><path d="M1849,173L1820,322L2069,337Z" fill="#e4af8d" stroke="#e4af8d" stroke-width="1.51"/><path d="M1820,322L2001,618L2069,337Z" fill="#e8bca0" stroke="#e8bca0" stroke-width="1.51"/><path d="M2018,1371L1793,1467L2064,1471Z" fill="#bdb7d9" stroke="#bdb7d9" stroke-width="1.51"/><path d="M1970,715L1800,762L2030,942Z" fill="#e4d9db" stroke="#e4d9db" stroke-width="1.51"/><path d="M1800,762L1838,978L2030,942Z" fill="#e4e0e8" stroke="#e4e0e8" stroke-width="1.51"/><path d="M1859,1888L1889,2098L2036,2016Z" fill="#8a70ab" stroke="#8a70ab" stroke-width="1.51"/><path d="M1798,1655L1859,1888L2023,1704Z" fill="#a294c3" stroke="#a294c3" stroke-width="1.51"/><path d="M1838,978L1945,1069L2030,942Z" fill="#dddceb" stroke="#dddceb" stroke-width="1.51"/><path d="M1802,1318L1793,1467L2018,1371Z" fill="#c5c2de" stroke="#c5c2de" stroke-width="1.51"/><path d="M1970,52L1849,173L2010,108Z" fill="#d89c7e" stroke="#d89c7e" stroke-width="1.51"/><path d="M1751,-201L1887,-45L1986,-233Z" fill="#c08c77" stroke="#c08c77" stroke-width="1.51"/><path d="M1795,562L1970,715L2001,618Z" fill="#e8d0c2" stroke="#e8d0c2" stroke-width="1.51"/><path d="M1795,562L1800,762L1970,715Z" fill="#ead8cd" stroke="#ead8cd" stroke-width="1.51"/><path d="M1887,-45L1849,173L1970,52Z" fill="#d59b7d" stroke="#d59b7d" stroke-width="1.51"/><path d="M1838,978L1794,1179L1945,1069Z" fill="#dcdcec" stroke="#dcdcec" stroke-width="1.51"/><path d="M1700,1128L1794,1179L1838,978Z" fill="#dfe0ee" stroke="#dfe0ee" stroke-width="1.51"/><path d="M1592,1938L1612,2066L1859,1888Z" fill="#997fb6" stroke="#997fb6" stroke-width="1.51"/><path d="M1673,-20L1849,173L1887,-45Z" fill="#d89f7f" stroke="#d89f7f" stroke-width="1.51"/><path d="M1751,-201L1673,-20L1887,-45Z" fill="#cd967b" stroke="#cd967b" stroke-width="1.51"/><path d="M1859,1888L1612,2066L1889,2098Z" fill="#9077ad" stroke="#9077ad" stroke-width="1.51"/><path d="M1467,-157L1637,-146L1751,-201Z" fill="#ca977b" stroke="#ca977b" stroke-width="1.51"/><path d="M1795,562L1685,702L1800,762Z" fill="#efddce" stroke="#efddce" stroke-width="1.51"/><path d="M1588,437L1795,562L1820,322Z" fill="#f3cba8" stroke="#f3cba8" stroke-width="1.51"/><path d="M1800,762L1564,1007L1838,978Z" fill="#ebeaef" stroke="#ebeaef" stroke-width="1.51"/><path d="M1622,165L1820,322L1849,173Z" fill="#e9b189" stroke="#e9b189" stroke-width="1.51"/><path d="M1673,-20L1622,165L1849,173Z" fill="#e2a983" stroke="#e2a983" stroke-width="1.51"/><path d="M1798,1655L1622,1658L1859,1888Z" fill="#a99ec8" stroke="#a99ec8" stroke-width="1.51"/><path d="M1622,1658L1592,1938L1859,1888Z" fill="#a592c3" stroke="#a592c3" stroke-width="1.51"/><path d="M1793,1467L1665,1498L1798,1655Z" fill="#bcb8d7" stroke="#bcb8d7" stroke-width="1.51"/><path d="M1588,437L1600,520L1795,562Z" fill="#f6d3b4" stroke="#f6d3b4" stroke-width="1.51"/><path d="M1685,702L1564,1007L1800,762Z" fill="#efe7e4" stroke="#efe7e4" stroke-width="1.51"/><path d="M1564,1007L1700,1128L1838,978Z" fill="#e6e6f0" stroke="#e6e6f0" stroke-width="1.51"/><path d="M1637,-146L1673,-20L1751,-201Z" fill="#cd977b" stroke="#cd977b" stroke-width="1.51"/><path d="M1665,1498L1793,1467L1802,1318Z" fill="#c7c5e0" stroke="#c7c5e0" stroke-width="1.51"/><path d="M1794,1179L1589,1297L1802,1318Z" fill="#d5d5e8" stroke="#d5d5e8" stroke-width="1.51"/><path d="M1622,165L1588,437L1820,322Z" fill="#f1bf96" stroke="#f1bf96" stroke-width="1.51"/><path d="M1090,-263L1195,-192L1467,-157Z" fill="#cc956d" stroke="#cc956d" stroke-width="1.51"/><path d="M1481,881L1564,1007L1685,702Z" fill="#f3eeeb" stroke="#f3eeeb" stroke-width="1.51"/><path d="M1700,1128L1589,1297L1794,1179Z" fill="#dbdced" stroke="#dbdced" stroke-width="1.51"/><path d="M1665,1498L1622,1658L1798,1655Z" fill="#b8b2d3" stroke="#b8b2d3" stroke-width="1.51"/><path d="M1589,1297L1665,1498L1802,1318Z" fill="#cfcde3" stroke="#cfcde3" stroke-width="1.51"/><path d="M1600,520L1685,702L1795,562Z" fill="#f3d9c2" stroke="#f3d9c2" stroke-width="1.51"/><path d="M1476,1687L1592,1938L1622,1658Z" fill="#afa1c9" stroke="#afa1c9" stroke-width="1.51"/><path d="M1466,373L1588,437L1622,165Z" fill="#f6c49a" stroke="#f6c49a" stroke-width="1.51"/><path d="M1458,766L1481,881L1685,702Z" fill="#f6ebe1" stroke="#f6ebe1" stroke-width="1.51"/><path d="M1469,1181L1589,1297L1700,1128Z" fill="#e0e1ee" stroke="#e0e1ee" stroke-width="1.51"/><path d="M1564,1007L1469,1181L1700,1128Z" fill="#e7e8f1" stroke="#e7e8f1" stroke-width="1.51"/><path d="M1377,41L1622,165L1673,-20Z" fill="#e4ab83" stroke="#e4ab83" stroke-width="1.51"/><path d="M1600,520L1458,766L1685,702Z" fill="#f7e3cf" stroke="#f7e3cf" stroke-width="1.51"/><path d="M1476,1687L1476,1931L1592,1938Z" fill="#aa95c4" stroke="#aa95c4" stroke-width="1.51"/><path d="M1425,230L1466,373L1622,165Z" fill="#f5bf91" stroke="#f5bf91" stroke-width="1.51"/><path d="M1469,1563L1622,1658L1665,1498Z" fill="#c0bad7" stroke="#c0bad7" stroke-width="1.51"/><path d="M1589,1297L1469,1563L1665,1498Z" fill="#ccc9e1" stroke="#ccc9e1" stroke-width="1.51"/><path d="M1637,-146L1467,-157L1673,-20Z" fill="#d29c7d" stroke="#d29c7d" stroke-width="1.51"/><path d="M1467,-157L1377,41L1673,-20Z" fill="#dca37f" stroke="#dca37f" stroke-width="1.51"/><path d="M1419,543L1458,766L1600,520Z" fill="#fbe2c7" stroke="#fbe2c7" stroke-width="1.51"/><path d="M1449,1290L1469,1563L1589,1297Z" fill="#d6d3e6" stroke="#d6d3e6" stroke-width="1.51"/><path d="M1476,1931L1480,2096L1592,1938Z" fill="#9e83b6" stroke="#9e83b6" stroke-width="1.51"/><path d="M1592,1938L1480,2096L1612,2066Z" fill="#987eaf" stroke="#987eaf" stroke-width="1.51"/><path d="M1469,1563L1476,1687L1622,1658Z" fill="#bcb5d3" stroke="#bcb5d3" stroke-width="1.51"/><path d="M1377,41L1425,230L1622,165Z" fill="#efb588" stroke="#efb588" stroke-width="1.51"/><path d="M1469,1181L1449,1290L1589,1297Z" fill="#dfdfed" stroke="#dfdfed" stroke-width="1.51"/><path d="M1588,437L1419,543L1600,520Z" fill="#fbd8b4" stroke="#fbd8b4" stroke-width="1.51"/><path d="M1466,373L1419,543L1588,437Z" fill="#fdd6ad" stroke="#fdd6ad" stroke-width="1.51"/><path d="M1481,881L1469,1181L1564,1007Z" fill="#efeff4" stroke="#efeff4" stroke-width="1.51"/><path d="M1279,1267L1200,1539L1449,1290Z" fill="#dcd3dc" stroke="#dcd3dc" stroke-width="1.51"/><path d="M1419,543L1301,711L1458,766Z" fill="#fce8ce" stroke="#fce8ce" stroke-width="1.51"/><path d="M1210,-71L1377,41L1467,-157Z" fill="#dda278" stroke="#dda278" stroke-width="1.51"/><path d="M1449,1290L1200,1539L1469,1563Z" fill="#d3cbdc" stroke="#d3cbdc" stroke-width="1.51"/><path d="M1291,888L1200,1174L1469,1181Z" fill="#f0eae9" stroke="#f0eae9" stroke-width="1.51"/><path d="M1469,1563L1239,1659L1476,1687Z" fill="#c0b7d1" stroke="#c0b7d1" stroke-width="1.51"/><path d="M1268,1886L1476,1931L1476,1687Z" fill="#b099c4" stroke="#b099c4" stroke-width="1.51"/><path d="M1239,1659L1268,1886L1476,1687Z" fill="#b8a5c3" stroke="#b8a5c3" stroke-width="1.51"/><path d="M1476,1931L1314,2063L1480,2096Z" fill="#9e82b0" stroke="#9e82b0" stroke-width="1.51"/><path d="M1291,888L1469,1181L1481,881Z" fill="#f5f3f4" stroke="#f5f3f4" stroke-width="1.51"/><path d="M1458,766L1291,888L1481,881Z" fill="#faf1e8" stroke="#faf1e8" stroke-width="1.51"/><path d="M1270,328L1419,543L1466,373Z" fill="#ffd2a3" stroke="#ffd2a3" stroke-width="1.51"/><path d="M1425,230L1270,328L1466,373Z" fill="#fac695" stroke="#fac695" stroke-width="1.51"/><path d="M1279,1267L1449,1290L1469,1181Z" fill="#e4e1eb" stroke="#e4e1eb" stroke-width="1.51"/><path d="M1268,1886L1314,2063L1476,1931Z" fill="#a686b4" stroke="#a686b4" stroke-width="1.51"/><path d="M1200,1539L1239,1659L1469,1563Z" fill="#c7bacc" stroke="#c7bacc" stroke-width="1.51"/><path d="M1200,1174L1279,1267L1469,1181Z" fill="#e8e2e5" stroke="#e8e2e5" stroke-width="1.51"/><path d="M1195,-192L1210,-71L1467,-157Z" fill="#d39b71" stroke="#d39b71" stroke-width="1.51"/><path d="M1301,711L1291,888L1458,766Z" fill="#fbeddb" stroke="#fbeddb" stroke-width="1.51"/><path d="M1246,630L1301,711L1419,543Z" fill="#fee2c1" stroke="#fee2c1" stroke-width="1.51"/><path d="M1270,328L1246,630L1419,543Z" fill="#ffd8aa" stroke="#ffd8aa" stroke-width="1.51"/><path d="M1377,41L1197,200L1425,230Z" fill="#f1b57f" stroke="#f1b57f" stroke-width="1.51"/><path d="M1197,200L1270,328L1425,230Z" fill="#f7bd85" stroke="#f7bd85" stroke-width="1.51"/><path d="M1095,430L1246,630L1270,328Z" fill="#ffd19b" stroke="#ffd19b" stroke-width="1.51"/><path d="M1123,1460L1200,1539L1279,1267Z" fill="#d9cad0" stroke="#d9cad0" stroke-width="1.51"/><path d="M1210,-71L1197,200L1377,41Z" fill="#e8aa75" stroke="#e8aa75" stroke-width="1.51"/><path d="M460,2041L269,2131L845,2042Z" fill="#9b5259" stroke="#9b5259" stroke-width="1.51"/><path d="M1006,935L1028,1128L1200,1174Z" fill="#f3e3d3" stroke="#f3e3d3" stroke-width="1.51"/><path d="M1097,14L1197,200L1210,-71Z" fill="#e6a66c" stroke="#e6a66c" stroke-width="1.51"/><path d="M1006,935L1200,1174L1291,888Z" fill="#f7eadd" stroke="#f7eadd" stroke-width="1.51"/><path d="M1008,794L1291,888L1301,711Z" fill="#fde9ce" stroke="#fde9ce" stroke-width="1.51"/><path d="M1268,1886L1008,2028L1314,2063Z" fill="#a57ea3" stroke="#a57ea3" stroke-width="1.51"/><path d="M1246,630L1008,794L1301,711Z" fill="#fee4c2" stroke="#fee4c2" stroke-width="1.51"/><path d="M1239,1659L1090,1630L1268,1886Z" fill="#bca5b9" stroke="#bca5b9" stroke-width="1.51"/><path d="M1008,794L1006,935L1291,888Z" fill="#fce9cf" stroke="#fce9cf" stroke-width="1.51"/><path d="M1090,1630L994,1928L1268,1886Z" fill="#b593ad" stroke="#b593ad" stroke-width="1.51"/><path d="M994,1928L1008,2028L1268,1886Z" fill="#aa7fa0" stroke="#aa7fa0" stroke-width="1.51"/><path d="M1200,1174L997,1361L1279,1267Z" fill="#e6d8d4" stroke="#e6d8d4" stroke-width="1.51"/><path d="M997,1361L1123,1460L1279,1267Z" fill="#dfcdcd" stroke="#dfcdcd" stroke-width="1.51"/><path d="M1095,430L1025,517L1246,630Z" fill="#ffd49e" stroke="#ffd49e" stroke-width="1.51"/><path d="M1197,200L1095,430L1270,328Z" fill="#fac184" stroke="#fac184" stroke-width="1.51"/><path d="M1071,210L1095,430L1197,200Z" fill="#f8bb79" stroke="#f8bb79" stroke-width="1.51"/><path d="M740,2017L460,2041L845,2042Z" fill="#a3616b" stroke="#a3616b" stroke-width="1.51"/><path d="M1200,1539L1090,1630L1239,1659Z" fill="#c7b3c0" stroke="#c7b3c0" stroke-width="1.51"/><path d="M1025,517L1008,794L1246,630Z" fill="#ffdcb0" stroke="#ffdcb0" stroke-width="1.51"/><path d="M925,1712L994,1928L1090,1630Z" fill="#bc98a5" stroke="#bc98a5" stroke-width="1.51"/><path d="M1090,-263L1097,14L1195,-192Z" fill="#d29663" stroke="#d29663" stroke-width="1.51"/><path d="M1097,14L1071,210L1197,200Z" fill="#eead6c" stroke="#eead6c" stroke-width="1.51"/><path d="M1028,1128L997,1361L1200,1174Z" fill="#ead9cf" stroke="#ead9cf" stroke-width="1.51"/><path d="M1195,-192L1097,14L1210,-71Z" fill="#d99b68" stroke="#d99b68" stroke-width="1.51"/><path d="M1123,1460L1090,1630L1200,1539Z" fill="#cebac1" stroke="#cebac1" stroke-width="1.51"/><path d="M831,-259L847,-46L1090,-263Z" fill="#cb894d" stroke="#cb894d" stroke-width="1.51"/><path d="M1071,210L937,341L1095,430Z" fill="#fabc77" stroke="#fabc77" stroke-width="1.51"/><path d="M1090,-263L847,-46L1097,14Z" fill="#d79459" stroke="#d79459" stroke-width="1.51"/><path d="M919,1490L1090,1630L1123,1460Z" fill="#d1b8ba" stroke="#d1b8ba" stroke-width="1.51"/><path d="M997,1361L919,1490L1123,1460Z" fill="#dbc1bd" stroke="#dbc1bd" stroke-width="1.51"/><path d="M925,1712L883,1854L994,1928Z" fill="#b68898" stroke="#b68898" stroke-width="1.51"/><path d="M843,749L1008,794L1025,517Z" fill="#ffd9a7" stroke="#ffd9a7" stroke-width="1.51"/><path d="M810,189L1071,210L1097,14Z" fill="#eda65e" stroke="#eda65e" stroke-width="1.51"/><path d="M847,-46L810,189L1097,14Z" fill="#e49b52" stroke="#e49b52" stroke-width="1.51"/><path d="M937,341L1025,517L1095,430Z" fill="#fec683" stroke="#fec683" stroke-width="1.51"/><path d="M919,1490L925,1712L1090,1630Z" fill="#c9abad" stroke="#c9abad" stroke-width="1.51"/><path d="M819,547L843,749L1025,517Z" fill="#ffcf92" stroke="#ffcf92" stroke-width="1.51"/><path d="M841,1167L997,1361L1028,1128Z" fill="#ecd3c1" stroke="#ecd3c1" stroke-width="1.51"/><path d="M810,189L937,341L1071,210Z" fill="#f5ae61" stroke="#f5ae61" stroke-width="1.51"/><path d="M-107,-216L70,-194L273,-209Z" fill="#a75309" stroke="#a75309" stroke-width="1.51"/><path d="M841,1167L899,1372L997,1361Z" fill="#e7c8b9" stroke="#e7c8b9" stroke-width="1.51"/><path d="M899,1372L919,1490L997,1361Z" fill="#dec0b6" stroke="#dec0b6" stroke-width="1.51"/><path d="M820,928L841,1167L1006,935Z" fill="#faddbf" stroke="#faddbf" stroke-width="1.51"/><path d="M820,928L1006,935L1008,794Z" fill="#fee1c0" stroke="#fee1c0" stroke-width="1.51"/><path d="M937,341L819,547L1025,517Z" fill="#ffc57f" stroke="#ffc57f" stroke-width="1.51"/><path d="M1006,935L841,1167L1028,1128Z" fill="#f5ddc5" stroke="#f5ddc5" stroke-width="1.51"/><path d="M994,1928L845,2042L1008,2028Z" fill="#a7738a" stroke="#a7738a" stroke-width="1.51"/><path d="M843,749L820,928L1008,794Z" fill="#ffdbb1" stroke="#ffdbb1" stroke-width="1.51"/><path d="M883,1854L845,2042L994,1928Z" fill="#ad768e" stroke="#ad768e" stroke-width="1.51"/><path d="M634,392L696,521L819,547Z" fill="#febb6a" stroke="#febb6a" stroke-width="1.51"/><path d="M820,928L734,1105L841,1167Z" fill="#f7d4b4" stroke="#f7d4b4" stroke-width="1.51"/><path d="M647,1573L716,1712L919,1490Z" fill="#cea196" stroke="#cea196" stroke-width="1.51"/><path d="M919,1490L716,1712L925,1712Z" fill="#c8a09d" stroke="#c8a09d" stroke-width="1.51"/><path d="M634,392L819,547L937,341Z" fill="#fdba6a" stroke="#fdba6a" stroke-width="1.51"/><path d="M810,189L634,392L937,341Z" fill="#f6ad59" stroke="#f6ad59" stroke-width="1.51"/><path d="M716,1712L883,1854L925,1712Z" fill="#bd8e94" stroke="#bd8e94" stroke-width="1.51"/><path d="M724,-29L810,189L847,-46Z" fill="#e29344" stroke="#e29344" stroke-width="1.51"/><path d="M740,2017L845,2042L883,1854Z" fill="#ab6f81" stroke="#ab6f81" stroke-width="1.51"/><path d="M841,1167L649,1255L899,1372Z" fill="#eac6ad" stroke="#eac6ad" stroke-width="1.51"/><path d="M899,1372L647,1573L919,1490Z" fill="#d9b1a5" stroke="#d9b1a5" stroke-width="1.51"/><path d="M747,792L820,928L843,749Z" fill="#ffd6a7" stroke="#ffd6a7" stroke-width="1.51"/><path d="M649,1255L647,1573L899,1372Z" fill="#e0b59f" stroke="#e0b59f" stroke-width="1.51"/><path d="M719,176L634,392L810,189Z" fill="#f2a348" stroke="#f2a348" stroke-width="1.51"/><path d="M724,-29L719,176L810,189Z" fill="#e89741" stroke="#e89741" stroke-width="1.51"/><path d="M831,-259L724,-29L847,-46Z" fill="#d28741" stroke="#d28741" stroke-width="1.51"/><path d="M621,1850L740,2017L883,1854Z" fill="#b17180" stroke="#b17180" stroke-width="1.51"/><path d="M716,1712L621,1850L883,1854Z" fill="#ba8185" stroke="#ba8185" stroke-width="1.51"/><path d="M696,521L747,792L819,547Z" fill="#ffc885" stroke="#ffc885" stroke-width="1.51"/><path d="M668,985L734,1105L820,928Z" fill="#fbd4ae" stroke="#fbd4ae" stroke-width="1.51"/><path d="M611,-251L724,-29L831,-259Z" fill="#ca7f37" stroke="#ca7f37" stroke-width="1.51"/><path d="M734,1105L649,1255L841,1167Z" fill="#f1cbab" stroke="#f1cbab" stroke-width="1.51"/><path d="M819,547L747,792L843,749Z" fill="#ffd097" stroke="#ffd097" stroke-width="1.51"/><path d="M747,792L668,985L820,928Z" fill="#ffd7ab" stroke="#ffd7ab" stroke-width="1.51"/><path d="M509,1534L647,1573L649,1255Z" fill="#d9a690" stroke="#d9a690" stroke-width="1.51"/><path d="M535,181L634,392L719,176Z" fill="#ee9c3e" stroke="#ee9c3e" stroke-width="1.51"/><path d="M535,181L719,176L724,-29Z" fill="#e59137" stroke="#e59137" stroke-width="1.51"/><path d="M696,521L486,682L747,792Z" fill="#fdc481" stroke="#fdc481" stroke-width="1.51"/><path d="M486,682L668,985L747,792Z" fill="#fdcb95" stroke="#fdcb95" stroke-width="1.51"/><path d="M458,9L535,181L724,-29Z" fill="#dc852b" stroke="#dc852b" stroke-width="1.51"/><path d="M621,1850L460,2041L740,2017Z" fill="#a8606c" stroke="#a8606c" stroke-width="1.51"/><path d="M486,682L418,954L668,985Z" fill="#fac591" stroke="#fac591" stroke-width="1.51"/><path d="M611,-251L458,9L724,-29Z" fill="#cf7c2b" stroke="#cf7c2b" stroke-width="1.51"/><path d="M668,985L464,1146L734,1105Z" fill="#f5c8a0" stroke="#f5c8a0" stroke-width="1.51"/><path d="M464,1146L649,1255L734,1105Z" fill="#efc29e" stroke="#efc29e" stroke-width="1.51"/><path d="M470,540L486,682L696,521Z" fill="#f9b66a" stroke="#f9b66a" stroke-width="1.51"/><path d="M647,1573L505,1653L716,1712Z" fill="#c69184" stroke="#c69184" stroke-width="1.51"/><path d="M479,-234L458,9L611,-251Z" fill="#c47222" stroke="#c47222" stroke-width="1.51"/><path d="M505,1653L621,1850L716,1712Z" fill="#bd837e" stroke="#bd837e" stroke-width="1.51"/><path d="M443,1254L509,1534L649,1255Z" fill="#e0ab8f" stroke="#e0ab8f" stroke-width="1.51"/><path d="M634,392L482,434L696,521Z" fill="#f9af59" stroke="#f9af59" stroke-width="1.51"/><path d="M482,434L470,540L696,521Z" fill="#f7af5c" stroke="#f7af5c" stroke-width="1.51"/><path d="M505,1653L476,1826L621,1850Z" fill="#b77774" stroke="#b77774" stroke-width="1.51"/><path d="M418,954L464,1146L668,985Z" fill="#f5c398" stroke="#f5c398" stroke-width="1.51"/><path d="M476,1826L460,2041L621,1850Z" fill="#ab616b" stroke="#ab616b" stroke-width="1.51"/><path d="M535,181L482,434L634,392Z" fill="#f09f43" stroke="#f09f43" stroke-width="1.51"/><path d="M509,1534L505,1653L647,1573Z" fill="#ca9382" stroke="#ca9382" stroke-width="1.51"/><path d="M464,1146L443,1254L649,1255Z" fill="#e9b793" stroke="#e9b793" stroke-width="1.51"/><path d="M443,1254L343,1380L509,1534Z" fill="#d9a084" stroke="#d9a084" stroke-width="1.51"/><path d="M348,1864L460,2041L476,1826Z" fill="#a85a63" stroke="#a85a63" stroke-width="1.51"/><path d="M312,-52L458,9L479,-234Z" fill="#c76f16" stroke="#c76f16" stroke-width="1.51"/><path d="M288,221L276,379L482,434Z" fill="#e99130" stroke="#e99130" stroke-width="1.51"/><path d="M229,789L418,954L486,682Z" fill="#f5b77b" stroke="#f5b77b" stroke-width="1.51"/><path d="M343,1380L364,1541L509,1534Z" fill="#d0947c" stroke="#d0947c" stroke-width="1.51"/><path d="M288,221L482,434L535,181Z" fill="#e9902e" stroke="#e9902e" stroke-width="1.51"/><path d="M458,9L288,221L535,181Z" fill="#de811c" stroke="#de811c" stroke-width="1.51"/><path d="M229,789L269,922L418,954Z" fill="#f1b682" stroke="#f1b682" stroke-width="1.51"/><path d="M418,954L305,1075L464,1146Z" fill="#efb88b" stroke="#efb88b" stroke-width="1.51"/><path d="M275,1707L476,1826L505,1653Z" fill="#b8776d" stroke="#b8776d" stroke-width="1.51"/><path d="M364,1541L505,1653L509,1534Z" fill="#c88d7b" stroke="#c88d7b" stroke-width="1.51"/><path d="M273,-209L312,-52L479,-234Z" fill="#bc660d" stroke="#bc660d" stroke-width="1.51"/><path d="M470,540L343,533L486,682Z" fill="#f5ad5f" stroke="#f5ad5f" stroke-width="1.51"/><path d="M364,1541L275,1707L505,1653Z" fill="#c08170" stroke="#c08170" stroke-width="1.51"/><path d="M275,1707L348,1864L476,1826Z" fill="#b06764" stroke="#b06764" stroke-width="1.51"/><path d="M343,533L470,540L482,434Z" fill="#f3a751" stroke="#f3a751" stroke-width="1.51"/><path d="M343,533L229,789L486,682Z" fill="#f3ae66" stroke="#f3ae66" stroke-width="1.51"/><path d="M276,379L343,533L482,434Z" fill="#f09d41" stroke="#f09d41" stroke-width="1.51"/><path d="M312,-52L288,221L458,9Z" fill="#d27510" stroke="#d27510" stroke-width="1.51"/><path d="M348,1864L269,2131L460,2041Z" fill="#9b4b52" stroke="#9b4b52" stroke-width="1.51"/><path d="M305,1075L443,1254L464,1146Z" fill="#eab28a" stroke="#eab28a" stroke-width="1.51"/><path d="M305,1075L343,1380L443,1254Z" fill="#e3a984" stroke="#e3a984" stroke-width="1.51"/><path d="M155,1936L269,2131L348,1864Z" fill="#994853" stroke="#994853" stroke-width="1.51"/><path d="M269,922L305,1075L418,954Z" fill="#f2b889" stroke="#f2b889" stroke-width="1.51"/><path d="M148,1062L62,1290L305,1075Z" fill="#dea581" stroke="#dea581" stroke-width="1.51"/><path d="M69,201L288,221L312,-52Z" fill="#d0730f" stroke="#d0730f" stroke-width="1.51"/><path d="M60,-43L69,201L312,-52Z" fill="#c4670b" stroke="#c4670b" stroke-width="1.51"/><path d="M305,1075L62,1290L343,1380Z" fill="#dba07f" stroke="#dba07f" stroke-width="1.51"/><path d="M161,568L229,789L343,533Z" fill="#eca55d" stroke="#eca55d" stroke-width="1.51"/><path d="M343,1380L131,1569L364,1541Z" fill="#c88a74" stroke="#c88a74" stroke-width="1.51"/><path d="M131,1569L275,1707L364,1541Z" fill="#bc7c6d" stroke="#bc7c6d" stroke-width="1.51"/><path d="M276,379L161,568L343,533Z" fill="#ea9b46" stroke="#ea9b46" stroke-width="1.51"/><path d="M275,1707L155,1936L348,1864Z" fill="#a75b5e" stroke="#a75b5e" stroke-width="1.51"/><path d="M62,1290L131,1569L343,1380Z" fill="#cb8e77" stroke="#cb8e77" stroke-width="1.51"/><path d="M161,568L145,780L229,789Z" fill="#e9a768" stroke="#e9a768" stroke-width="1.51"/><path d="M155,1936L143,2119L269,2131Z" fill="#8c3d47" stroke="#8c3d47" stroke-width="1.51"/><path d="M70,-194L60,-43L273,-209Z" fill="#b05a09" stroke="#b05a09" stroke-width="1.51"/><path d="M78,1728L155,1936L275,1707Z" fill="#a55d5f" stroke="#a55d5f" stroke-width="1.51"/><path d="M154,357L276,379L288,221Z" fill="#e08829" stroke="#e08829" stroke-width="1.51"/><path d="M269,922L148,1062L305,1075Z" fill="#e9b085" stroke="#e9b085" stroke-width="1.51"/><path d="M273,-209L60,-43L312,-52Z" fill="#bb610a" stroke="#bb610a" stroke-width="1.51"/><path d="M154,357L161,568L276,379Z" fill="#e5923a" stroke="#e5923a" stroke-width="1.51"/><path d="M69,201L154,357L288,221Z" fill="#d97d1e" stroke="#d97d1e" stroke-width="1.51"/><path d="M229,789L118,908L269,922Z" fill="#ecaf7d" stroke="#ecaf7d" stroke-width="1.51"/><path d="M118,908L148,1062L269,922Z" fill="#e9af85" stroke="#e9af85" stroke-width="1.51"/><path d="M131,1569L78,1728L275,1707Z" fill="#b07066" stroke="#b07066" stroke-width="1.51"/><path d="M-87,2032L-236,2081L143,2119Z" fill="#7b2f40" stroke="#7b2f40" stroke-width="1.51"/><path d="M145,780L118,908L229,789Z" fill="#e9aa76" stroke="#e9aa76" stroke-width="1.51"/><path d="M60,-43L-61,22L69,201Z" fill="#be6209" stroke="#be6209" stroke-width="1.51"/><path d="M62,1290L-82,1454L131,1569Z" fill="#c08372" stroke="#c08372" stroke-width="1.51"/><path d="M-129,1115L62,1290L148,1062Z" fill="#d59c7d" stroke="#d59c7d" stroke-width="1.51"/><path d="M-128,317L-128,501L154,357Z" fill="#d38030" stroke="#d38030" stroke-width="1.51"/><path d="M78,1728L-141,1919L155,1936Z" fill="#974a57" stroke="#974a57" stroke-width="1.51"/><path d="M-87,2032L143,2119L155,1936Z" fill="#893948" stroke="#893948" stroke-width="1.51"/><path d="M-89,752L145,780L161,568Z" fill="#e2a064" stroke="#e2a064" stroke-width="1.51"/><path d="M-128,501L-89,752L161,568Z" fill="#db9453" stroke="#db9453" stroke-width="1.51"/><path d="M154,357L-128,501L161,568Z" fill="#dd8e3e" stroke="#dd8e3e" stroke-width="1.51"/><path d="M118,908L-113,956L148,1062Z" fill="#e1a781" stroke="#e1a781" stroke-width="1.51"/><path d="M69,201L-128,317L154,357Z" fill="#d17920" stroke="#d17920" stroke-width="1.51"/><path d="M-141,1919L-87,2032L155,1936Z" fill="#8a394e" stroke="#8a394e" stroke-width="1.51"/><path d="M-89,752L118,908L145,780Z" fill="#e2a472" stroke="#e2a472" stroke-width="1.51"/><path d="M-113,956L-129,1115L148,1062Z" fill="#d79f7e" stroke="#d79f7e" stroke-width="1.51"/><path d="M-107,1696L78,1728L131,1569Z" fill="#a96963" stroke="#a96963" stroke-width="1.51"/><path d="M-82,1454L-107,1696L131,1569Z" fill="#af7168" stroke="#af7168" stroke-width="1.51"/><path d="M-102,1375L-82,1454L62,1290Z" fill="#c08573" stroke="#c08573" stroke-width="1.51"/><path d="M-58,192L-128,317L69,201Z" fill="#c96f16" stroke="#c96f16" stroke-width="1.51"/><path d="M-61,22L-58,192L69,201Z" fill="#c3670b" stroke="#c3670b" stroke-width="1.51"/><path d="M-89,752L-113,956L118,908Z" fill="#dca277" stroke="#dca277" stroke-width="1.51"/><path d="M-107,-216L60,-43L70,-194Z" fill="#a85207" stroke="#a85207" stroke-width="1.51"/><path d="M-107,1696L-141,1919L78,1728Z" fill="#98535a" stroke="#98535a" stroke-width="1.51"/><path d="M-107,-216L-61,22L60,-43Z" fill="#ad5406" stroke="#ad5406" stroke-width="1.51"/><path d="M-129,1115L-102,1375L62,1290Z" fill="#c78f78" stroke="#c78f78" stroke-width="1.51"/><path d="M-129,1115L-213,1314L-102,1375Z" fill="#bf8a76" stroke="#bf8a76" stroke-width="1.51"/><path d="M-128,501L-303,552L-89,752Z" fill="#ce8c50" stroke="#ce8c50" stroke-width="1.51"/><path d="M-258,883L-113,956L-89,752Z" fill="#d29c74" stroke="#d29c74" stroke-width="1.51"/><path d="M-265,1551L-107,1696L-82,1454Z" fill="#a56b66" stroke="#a56b66" stroke-width="1.51"/><path d="M-252,-82L-295,168L-61,22Z" fill="#ac5709" stroke="#ac5709" stroke-width="1.51"/><path d="M-107,-216L-252,-82L-61,22Z" fill="#a45007" stroke="#a45007" stroke-width="1.51"/><path d="M-61,22L-295,168L-58,192Z" fill="#b9610b" stroke="#b9610b" stroke-width="1.51"/><path d="M-295,168L-128,317L-58,192Z" fill="#bf6913" stroke="#bf6913" stroke-width="1.51"/><path d="M-222,1927L-141,1919L-107,1696Z" fill="#8b4555" stroke="#8b4555" stroke-width="1.51"/><path d="M-314,1664L-222,1927L-107,1696Z" fill="#8e4f59" stroke="#8e4f59" stroke-width="1.51"/><path d="M-303,552L-332,815L-89,752Z" fill="#ca9160" stroke="#ca9160" stroke-width="1.51"/><path d="M-102,1375L-265,1551L-82,1454Z" fill="#b0786d" stroke="#b0786d" stroke-width="1.51"/><path d="M-282,1059L-129,1115L-113,956Z" fill="#cb987b" stroke="#cb987b" stroke-width="1.51"/><path d="M-213,1314L-265,1551L-102,1375Z" fill="#b07b6f" stroke="#b07b6f" stroke-width="1.51"/><path d="M-141,1919L-222,1927L-87,2032Z" fill="#81354c" stroke="#81354c" stroke-width="1.51"/><path d="M-222,1927L-236,2081L-87,2032Z" fill="#792f45" stroke="#792f45" stroke-width="1.51"/><path d="M-332,815L-258,883L-89,752Z" fill="#cd966d" stroke="#cd966d" stroke-width="1.51"/><path d="M-327,302L-128,501L-128,317Z" fill="#c6772c" stroke="#c6772c" stroke-width="1.51"/><path d="M-265,1551L-314,1664L-107,1696Z" fill="#986160" stroke="#986160" stroke-width="1.51"/><path d="M-308,-138L-252,-82L-107,-216Z" fill="#984908" stroke="#984908" stroke-width="1.51"/><path d="M-327,302L-303,552L-128,501Z" fill="#c67d37" stroke="#c67d37" stroke-width="1.51"/><path d="M-282,1059L-213,1314L-129,1115Z" fill="#c29079" stroke="#c29079" stroke-width="1.51"/><path d="M-295,168L-327,302L-128,317Z" fill="#bb691a" stroke="#bb691a" stroke-width="1.51"/><path d="M-258,883L-282,1059L-113,956Z" fill="#cc9b7d" stroke="#cc9b7d" stroke-width="1.51"/><path d="M-282,1059L-265,1551L-213,1314Z" fill="#b48273" stroke="#b48273" stroke-width="1.51"/><path d="M-314,1664L-236,2081L-222,1927Z" fill="#7f3950" stroke="#7f3950" stroke-width="1.51"/><path d="M-282,1059L-314,1664L-265,1551Z" fill="#a8756d" stroke="#a8756d" stroke-width="1.51"/><path d="M-308,-138L-295,168L-252,-82Z" fill="#a14f08" stroke="#a14f08" stroke-width="1.51"/><path d="M-332,815L-282,1059L-258,883Z" fill="#c79879" stroke="#c79879" stroke-width="1.51"/><path d="M-332,815L-314,1664L-282,1059Z" fill="#b98a77" stroke="#b98a77" stroke-width="1.51"/><path d="M-308,-138L-327,302L-295,168Z" fill="#ab580c" stroke="#ab580c" stroke-width="1.51"/><path d="M-327,302L-332,815L-303,552Z" fill="#c28247" stroke="#c28247" stroke-width="1.51"/></svg>